<svg width="360" height="200" viewBox="0 0 360 200" fill="none" xmlns="http://www.w3.org/2000/svg">
<g clip-path="url(#clip0_174_406)">
<rect width="360" height="200" rx="24" fill="#FF5652"/>
<mask id="mask0_174_406" style="mask-type:alpha" maskUnits="userSpaceOnUse" x="-61" y="-60" width="255" height="255">
<rect x="-60.8925" y="13.8462" width="194.867" height="194.867" transform="rotate(-22.2647 -60.8925 13.8462)" fill="#D9D9D9"/>
</mask>
<g mask="url(#mask0_174_406)">
<path d="M136.897 46.9256L121.868 53.0783C119.739 53.95 117.66 53.9605 115.63 53.1099C113.6 52.2594 112.15 50.7696 111.278 48.6406C110.406 46.5116 110.396 44.4322 111.246 42.4023C112.097 40.3725 113.587 38.9217 115.716 38.0501L130.744 31.8974C132.873 31.0258 134.952 31.0152 136.982 31.8658C139.012 32.7164 140.463 34.2062 141.334 36.3352C142.206 38.4642 142.217 40.5436 141.366 42.5734C140.515 44.6033 139.026 46.054 136.897 46.9256ZM115.525 89.0153C116.059 86.7492 117.277 85.0808 119.178 84.01C121.08 82.9391 123.163 82.671 125.429 83.2055L141.143 87.3003C143.409 87.8348 145.078 89.0527 146.149 90.9539C147.22 92.8552 147.488 94.9388 146.953 97.2048C146.419 99.4708 145.201 101.139 143.299 102.21C141.398 103.281 139.315 103.549 137.049 103.015L121.334 98.9197C119.068 98.3852 117.4 97.1673 116.329 95.2661C115.258 93.3649 114.99 91.2813 115.525 89.0153ZM105.458 0.136529L97.1267 14.0756C95.8861 16.0458 94.2127 17.3158 92.1064 17.8857C90.0001 18.4556 87.9618 18.1203 85.9917 16.8797C84.0215 15.6392 82.7515 13.9657 82.1816 11.8594C81.6117 9.75309 81.947 7.71485 83.1876 5.74468L91.5185 -8.19443C92.7591 -10.1646 94.4326 -11.4346 96.5389 -12.0045C98.6452 -12.5744 100.683 -12.2391 102.654 -10.9985C104.624 -9.75794 105.894 -8.0845 106.464 -5.97819C107.034 -3.87188 106.698 -1.83364 105.458 0.136529ZM22.8235 111.176L15.3094 114.252C11.1766 115.944 7.03626 115.921 2.88833 114.183C-1.25961 112.445 -4.17957 109.509 -5.87157 105.376L-12.0243 90.3482C-13.7163 86.2154 -13.6932 82.0751 -11.9551 77.9271C-10.217 73.7792 -7.28153 70.8592 -3.14877 69.1672L26.9077 56.8618L46.5589 30.3918C48.4483 27.8635 50.9844 26.8253 54.167 27.277C57.3495 27.7287 59.5305 29.3948 60.7097 32.2752L86.705 95.7695C87.8842 98.6499 87.4979 101.367 85.5458 103.921C83.5937 106.475 81.0577 107.513 77.9378 107.036L45.3658 101.947L37.8517 105.023L47.0808 127.565C47.9524 129.694 47.963 131.774 47.1124 133.803C46.2618 135.833 44.772 137.284 42.643 138.156C40.514 139.027 38.4346 139.038 36.4048 138.187C34.3749 137.337 32.9242 135.847 32.0526 133.718L22.8235 111.176ZM91.5273 86.1183L70.9157 35.7737C75.5276 37.395 79.7512 39.943 83.5865 43.4176C87.4217 46.8922 90.3905 51.1968 92.4927 56.3315C94.5948 61.4661 95.4972 66.6168 95.1997 71.7834C94.9022 76.95 93.6781 81.7283 91.5273 86.1183Z" fill="white"/>
</g>
<path d="M169.375 132.43C171.965 132.43 174.228 132.943 176.165 133.97C178.102 134.997 179.595 136.443 180.645 138.31C181.718 140.153 182.255 142.288 182.255 144.715C182.255 147.118 181.718 149.253 180.645 151.12C179.595 152.987 178.09 154.433 176.13 155.46C174.193 156.487 171.942 157 169.375 157H160.17V132.43H169.375ZM168.99 151.82C171.253 151.82 173.015 151.202 174.275 149.965C175.535 148.728 176.165 146.978 176.165 144.715C176.165 142.452 175.535 140.69 174.275 139.43C173.015 138.17 171.253 137.54 168.99 137.54H166.155V151.82H168.99ZM191.585 137.225V142.195H199.6V146.815H191.585V152.205H200.65V157H185.6V132.43H200.65V137.225H191.585ZM226.515 157H220.53L210.52 141.845V157H204.535V132.43H210.52L220.53 147.655V132.43H226.515V157ZM236.734 132.43V147.13C236.734 148.6 237.095 149.732 237.819 150.525C238.542 151.318 239.604 151.715 241.004 151.715C242.404 151.715 243.477 151.318 244.224 150.525C244.97 149.732 245.344 148.6 245.344 147.13V132.43H251.329V147.095C251.329 149.288 250.862 151.143 249.929 152.66C248.995 154.177 247.735 155.32 246.149 156.09C244.585 156.86 242.835 157.245 240.899 157.245C238.962 157.245 237.224 156.872 235.684 156.125C234.167 155.355 232.965 154.212 232.079 152.695C231.192 151.155 230.749 149.288 230.749 147.095V132.43H236.734ZM245.099 127.495L236.664 131.03V126.9L245.099 122.84V127.495ZM277.511 157H271.526L261.516 141.845V157H255.531V132.43H261.516L271.526 147.655V132.43H277.511V157ZM280.835 144.68C280.835 142.253 281.36 140.095 282.41 138.205C283.46 136.292 284.918 134.81 286.785 133.76C288.675 132.687 290.81 132.15 293.19 132.15C296.106 132.15 298.603 132.92 300.68 134.46C302.756 136 304.145 138.1 304.845 140.76H298.265C297.775 139.733 297.075 138.952 296.165 138.415C295.278 137.878 294.263 137.61 293.12 137.61C291.276 137.61 289.783 138.252 288.64 139.535C287.496 140.818 286.925 142.533 286.925 144.68C286.925 146.827 287.496 148.542 288.64 149.825C289.783 151.108 291.276 151.75 293.12 151.75C294.263 151.75 295.278 151.482 296.165 150.945C297.075 150.408 297.775 149.627 298.265 148.6H304.845C304.145 151.26 302.756 153.36 300.68 154.9C298.603 156.417 296.106 157.175 293.19 157.175C290.81 157.175 288.675 156.65 286.785 155.6C284.918 154.527 283.46 153.045 282.41 151.155C281.36 149.265 280.835 147.107 280.835 144.68ZM314.495 132.43V157H308.51V132.43H314.495ZM334.127 152.66H324.957L323.487 157H317.222L326.112 132.43H333.042L341.932 157H335.597L334.127 152.66ZM332.587 148.04L329.542 139.045L326.532 148.04H332.587Z" fill="white"/>
</g>
<defs>
<clipPath id="clip0_174_406">
<rect width="360" height="200" rx="24" fill="white"/>
</clipPath>
</defs>
</svg>
