<svg width="360" height="200" viewBox="0 0 360 200" fill="none" xmlns="http://www.w3.org/2000/svg">
<g clip-path="url(#clip0_174_418)">
<rect width="360" height="200" rx="24" fill="#FC489C"/>
<mask id="mask0_174_418" style="mask-type:alpha" maskUnits="userSpaceOnUse" x="-30" y="51" width="160" height="160">
<rect x="-30" y="51" width="160" height="160" fill="#D9D9D9"/>
</mask>
<g mask="url(#mask0_174_418)">
<path d="M50 186.499C48.4445 186.499 46.8612 186.222 45.25 185.666C43.6389 185.11 42.2223 184.222 41 182.999L29.5 172.499C17.7223 161.722 7.08337 151.027 -2.41663 140.416C-11.9166 129.805 -16.6666 118.11 -16.6666 105.333C-16.6666 94.8882 -13.1666 86.166 -6.16663 79.166C0.833374 72.166 9.5556 68.666 20 68.666C25.8889 68.666 31.4445 69.916 36.6667 72.416C41.8889 74.916 46.3334 78.3327 50 82.666C53.6667 78.3327 58.1111 74.916 63.3334 72.416C68.5556 69.916 74.1111 68.666 80 68.666C90.4445 68.666 99.1667 72.166 106.167 79.166C113.167 86.166 116.667 94.8882 116.667 105.333C116.667 118.11 111.944 129.833 102.5 140.499C93.0556 151.166 82.3334 161.888 70.3334 172.666L59 182.999C57.7778 184.222 56.3612 185.11 54.75 185.666C53.1389 186.222 51.5556 186.499 50 186.499Z" fill="white"/>
</g>
<path d="M223.155 137.225V142.195H231.17V146.815H223.155V152.205H232.22V157H217.17V132.43H232.22V137.225H223.155ZM242.091 152.38H249.931V157H236.106V132.43H242.091V152.38ZM264.405 157.245C262.095 157.245 259.972 156.708 258.035 155.635C256.122 154.562 254.594 153.068 253.45 151.155C252.33 149.218 251.77 147.048 251.77 144.645C251.77 142.242 252.33 140.083 253.45 138.17C254.594 136.257 256.122 134.763 258.035 133.69C259.972 132.617 262.095 132.08 264.405 132.08C266.715 132.08 268.827 132.617 270.74 133.69C272.677 134.763 274.194 136.257 275.29 138.17C276.41 140.083 276.97 142.242 276.97 144.645C276.97 147.048 276.41 149.218 275.29 151.155C274.17 153.068 272.654 154.562 270.74 155.635C268.827 156.708 266.715 157.245 264.405 157.245ZM264.405 151.785C266.365 151.785 267.929 151.132 269.095 149.825C270.285 148.518 270.88 146.792 270.88 144.645C270.88 142.475 270.285 140.748 269.095 139.465C267.929 138.158 266.365 137.505 264.405 137.505C262.422 137.505 260.835 138.147 259.645 139.43C258.479 140.713 257.895 142.452 257.895 144.645C257.895 146.815 258.479 148.553 259.645 149.86C260.835 151.143 262.422 151.785 264.405 151.785ZM296.61 140.2C296.167 139.383 295.525 138.765 294.685 138.345C293.868 137.902 292.9 137.68 291.78 137.68C289.843 137.68 288.292 138.322 287.125 139.605C285.958 140.865 285.375 142.557 285.375 144.68C285.375 146.943 285.982 148.717 287.195 150C288.432 151.26 290.123 151.89 292.27 151.89C293.74 151.89 294.977 151.517 295.98 150.77C297.007 150.023 297.753 148.95 298.22 147.55H290.625V143.14H303.645V148.705C303.202 150.198 302.443 151.587 301.37 152.87C300.32 154.153 298.978 155.192 297.345 155.985C295.712 156.778 293.868 157.175 291.815 157.175C289.388 157.175 287.218 156.65 285.305 155.6C283.415 154.527 281.933 153.045 280.86 151.155C279.81 149.265 279.285 147.107 279.285 144.68C279.285 142.253 279.81 140.095 280.86 138.205C281.933 136.292 283.415 134.81 285.305 133.76C287.195 132.687 289.353 132.15 291.78 132.15C294.72 132.15 297.193 132.862 299.2 134.285C301.23 135.708 302.572 137.68 303.225 140.2H296.61ZM312.945 132.43V157H306.96V132.43H312.945ZM328.902 157.245C326.592 157.245 324.469 156.708 322.532 155.635C320.619 154.562 319.091 153.068 317.947 151.155C316.827 149.218 316.267 147.048 316.267 144.645C316.267 142.242 316.827 140.083 317.947 138.17C319.091 136.257 320.619 134.763 322.532 133.69C324.469 132.617 326.592 132.08 328.902 132.08C331.212 132.08 333.324 132.617 335.237 133.69C337.174 134.763 338.691 136.257 339.787 138.17C340.907 140.083 341.467 142.242 341.467 144.645C341.467 147.048 340.907 149.218 339.787 151.155C338.667 153.068 337.151 154.562 335.237 155.635C333.324 156.708 331.212 157.245 328.902 157.245ZM328.902 151.785C330.862 151.785 332.426 151.132 333.592 149.825C334.782 148.518 335.377 146.792 335.377 144.645C335.377 142.475 334.782 140.748 333.592 139.465C332.426 138.158 330.862 137.505 328.902 137.505C326.919 137.505 325.332 138.147 324.142 139.43C322.976 140.713 322.392 142.452 322.392 144.645C322.392 146.815 322.976 148.553 324.142 149.86C325.332 151.143 326.919 151.785 328.902 151.785Z" fill="white"/>
</g>
<defs>
<clipPath id="clip0_174_418">
<rect width="360" height="200" rx="24" fill="white"/>
</clipPath>
</defs>
</svg>
