<svg width="360" height="200" viewBox="0 0 360 200" fill="none" xmlns="http://www.w3.org/2000/svg">
<g clip-path="url(#clip0_174_417)">
<rect width="360" height="200" rx="24" fill="#E9DC4C"/>
<mask id="mask0_174_417" style="mask-type:alpha" maskUnits="userSpaceOnUse" x="225" y="-6" width="160" height="160">
<rect x="225" y="-6" width="160" height="160" fill="#D9D9D9"/>
</mask>
<g mask="url(#mask0_174_417)">
<path d="M245 100.667C241.444 100.667 238.333 99.3333 235.667 96.6667C233 94 231.667 90.8889 231.667 87.3333V74C231.667 73.2222 231.75 72.3889 231.917 71.5C232.083 70.6111 232.333 69.7778 232.667 69L252.667 22C253.667 19.7778 255.333 17.8889 257.667 16.3333C260 14.7778 262.444 14 265 14H318.333C322 14 325.139 15.3056 327.75 17.9167C330.361 20.5278 331.667 23.6667 331.667 27.3333V95.1667C331.667 96.9444 331.306 98.6389 330.583 100.25C329.861 101.861 328.889 103.278 327.667 104.5L291.5 140.5C289.833 142.056 287.861 143 285.583 143.333C283.306 143.667 281.111 143.278 279 142.167C276.889 141.056 275.361 139.5 274.417 137.5C273.472 135.5 273.278 133.444 273.833 131.333L281.333 100.667H245ZM358.333 14C362 14 365.139 15.3056 367.75 17.9167C370.361 20.5278 371.667 23.6667 371.667 27.3333V87.3333C371.667 91 370.361 94.1389 367.75 96.75C365.139 99.3611 362 100.667 358.333 100.667C354.667 100.667 351.528 99.3611 348.917 96.75C346.306 94.1389 345 91 345 87.3333V27.3333C345 23.6667 346.306 20.5278 348.917 17.9167C351.528 15.3056 354.667 14 358.333 14Z" fill="white"/>
</g>
<path d="M29.7 157L24.59 147.725H23.155V157H17.17V132.43H27.215C29.1517 132.43 30.7967 132.768 32.15 133.445C33.5267 134.122 34.5533 135.055 35.23 136.245C35.9067 137.412 36.245 138.718 36.245 140.165C36.245 141.798 35.7783 143.257 34.845 144.54C33.935 145.823 32.5817 146.733 30.785 147.27L36.455 157H29.7ZM23.155 143.49H26.865C27.9617 143.49 28.7783 143.222 29.315 142.685C29.875 142.148 30.155 141.39 30.155 140.41C30.155 139.477 29.875 138.742 29.315 138.205C28.7783 137.668 27.9617 137.4 26.865 137.4H23.155V143.49ZM45.987 137.225V142.195H54.002V146.815H45.987V152.205H55.052V157H40.002V132.43H55.052V137.225H45.987ZM57.9226 144.68C57.9226 142.253 58.4476 140.095 59.4976 138.205C60.5476 136.292 62.0059 134.81 63.8726 133.76C65.7626 132.687 67.8976 132.15 70.2776 132.15C73.1942 132.15 75.6909 132.92 77.7676 134.46C79.8442 136 81.2326 138.1 81.9326 140.76H75.3526C74.8626 139.733 74.1626 138.952 73.2526 138.415C72.3659 137.878 71.3509 137.61 70.2076 137.61C68.3642 137.61 66.8709 138.252 65.7276 139.535C64.5842 140.818 64.0126 142.533 64.0126 144.68C64.0126 146.827 64.5842 148.542 65.7276 149.825C66.8709 151.108 68.3642 151.75 70.2076 151.75C71.3509 151.75 72.3659 151.482 73.2526 150.945C74.1626 150.408 74.8626 149.627 75.3526 148.6H81.9326C81.2326 151.26 79.8442 153.36 77.7676 154.9C75.6909 156.417 73.1942 157.175 70.2776 157.175C67.8976 157.175 65.7626 156.65 63.8726 155.6C62.0059 154.527 60.5476 153.045 59.4976 151.155C58.4476 149.265 57.9226 147.107 57.9226 144.68ZM91.5827 152.38H99.4227V157H85.5977V132.43H91.5827V152.38ZM117.572 152.66H108.402L106.932 157H100.667L109.557 132.43H116.487L125.377 157H119.042L117.572 152.66ZM116.032 148.04L112.987 139.045L109.977 148.04H116.032ZM155.908 132.43V157H149.923V142.265L144.428 157H139.598L134.068 142.23V157H128.083V132.43H135.153L142.048 149.44L148.873 132.43H155.908ZM175.507 152.66H166.337L164.867 157H158.602L167.492 132.43H174.422L183.312 157H176.977L175.507 152.66ZM173.967 148.04L170.922 139.045L167.912 148.04H173.967ZM197.288 151.75C198.431 151.75 199.446 151.482 200.333 150.945C201.243 150.408 201.943 149.627 202.433 148.6H209.013C208.383 150.957 207.204 152.882 205.478 154.375C203.774 155.845 201.698 156.743 199.248 157.07V158.435C200.461 158.435 201.523 158.762 202.433 159.415C203.343 160.092 203.798 161.095 203.798 162.425C203.798 163.755 203.319 164.758 202.363 165.435C201.406 166.135 200.263 166.485 198.933 166.485H193.543V163.195H198.128C198.594 163.195 198.944 163.125 199.178 162.985C199.411 162.845 199.528 162.612 199.528 162.285C199.528 161.958 199.411 161.725 199.178 161.585C198.944 161.468 198.594 161.41 198.128 161.41H195.643V157.07C193.543 156.837 191.688 156.172 190.078 155.075C188.468 153.955 187.219 152.497 186.333 150.7C185.446 148.903 185.003 146.897 185.003 144.68C185.003 142.253 185.528 140.095 186.578 138.205C187.628 136.292 189.086 134.81 190.953 133.76C192.843 132.687 194.978 132.15 197.358 132.15C200.274 132.15 202.771 132.92 204.848 134.46C206.924 136 208.313 138.1 209.013 140.76H202.433C201.943 139.733 201.243 138.952 200.333 138.415C199.446 137.878 198.431 137.61 197.288 137.61C195.444 137.61 193.951 138.252 192.808 139.535C191.664 140.818 191.093 142.533 191.093 144.68C191.093 146.827 191.664 148.542 192.808 149.825C193.951 151.108 195.444 151.75 197.288 151.75ZM227.973 152.66H218.803L217.333 157H211.068L219.958 132.43H226.888L235.778 157H229.443L227.973 152.66ZM226.433 148.04L223.388 139.045L220.378 148.04H226.433ZM216.423 130.715C216.983 127.262 218.593 125.535 221.253 125.535C221.766 125.535 222.209 125.617 222.583 125.78C222.979 125.92 223.458 126.142 224.018 126.445C224.438 126.678 224.776 126.853 225.033 126.97C225.289 127.063 225.558 127.11 225.838 127.11C226.701 127.11 227.203 126.585 227.343 125.535H230.423C229.863 128.988 228.253 130.715 225.593 130.715C225.079 130.715 224.624 130.645 224.228 130.505C223.854 130.342 223.388 130.108 222.828 129.805C222.408 129.572 222.069 129.408 221.813 129.315C221.556 129.198 221.288 129.14 221.008 129.14C220.144 129.14 219.631 129.665 219.468 130.715H216.423ZM250.103 157.245C247.793 157.245 245.67 156.708 243.733 155.635C241.82 154.562 240.292 153.068 239.148 151.155C238.028 149.218 237.468 147.048 237.468 144.645C237.468 142.242 238.028 140.083 239.148 138.17C240.292 136.257 241.82 134.763 243.733 133.69C245.67 132.617 247.793 132.08 250.103 132.08C252.413 132.08 254.525 132.617 256.438 133.69C258.375 134.763 259.892 136.257 260.988 138.17C262.108 140.083 262.668 142.242 262.668 144.645C262.668 147.048 262.108 149.218 260.988 151.155C259.868 153.068 258.352 154.562 256.438 155.635C254.525 156.708 252.413 157.245 250.103 157.245ZM250.103 151.785C252.063 151.785 253.627 151.132 254.793 149.825C255.983 148.518 256.578 146.792 256.578 144.645C256.578 142.475 255.983 140.748 254.793 139.465C253.627 138.158 252.063 137.505 250.103 137.505C248.12 137.505 246.533 138.147 245.343 139.43C244.177 140.713 243.593 142.452 243.593 144.645C243.593 146.815 244.177 148.553 245.343 149.86C246.533 151.143 248.12 151.785 250.103 151.785Z" fill="white"/>
</g>
<defs>
<clipPath id="clip0_174_417">
<rect width="360" height="200" rx="24" fill="white"/>
</clipPath>
</defs>
</svg>
