<svg width="360" height="200" viewBox="0 0 360 200" fill="none" xmlns="http://www.w3.org/2000/svg">
<g clip-path="url(#clip0_174_407)">
<rect width="360" height="200" rx="24" fill="#12D05E"/>
<path d="M28.06 157.245C26.2633 157.245 24.6533 156.953 23.23 156.37C21.8067 155.787 20.6633 154.923 19.8 153.78C18.96 152.637 18.5167 151.26 18.47 149.65H24.84C24.9333 150.56 25.2483 151.26 25.785 151.75C26.3217 152.217 27.0217 152.45 27.885 152.45C28.7717 152.45 29.4717 152.252 29.985 151.855C30.4983 151.435 30.755 150.863 30.755 150.14C30.755 149.533 30.545 149.032 30.125 148.635C29.7283 148.238 29.2267 147.912 28.62 147.655C28.0367 147.398 27.1967 147.107 26.1 146.78C24.5133 146.29 23.2183 145.8 22.215 145.31C21.2117 144.82 20.3483 144.097 19.625 143.14C18.9017 142.183 18.54 140.935 18.54 139.395C18.54 137.108 19.3683 135.323 21.025 134.04C22.6817 132.733 24.84 132.08 27.5 132.08C30.2067 132.08 32.3883 132.733 34.045 134.04C35.7017 135.323 36.5883 137.12 36.705 139.43H30.23C30.1833 138.637 29.8917 138.018 29.355 137.575C28.8183 137.108 28.13 136.875 27.29 136.875C26.5667 136.875 25.9833 137.073 25.54 137.47C25.0967 137.843 24.875 138.392 24.875 139.115C24.875 139.908 25.2483 140.527 25.995 140.97C26.7417 141.413 27.9083 141.892 29.495 142.405C31.0817 142.942 32.365 143.455 33.345 143.945C34.3483 144.435 35.2117 145.147 35.935 146.08C36.6583 147.013 37.02 148.215 37.02 149.685C37.02 151.085 36.6583 152.357 35.935 153.5C35.235 154.643 34.2083 155.553 32.855 156.23C31.5017 156.907 29.9033 157.245 28.06 157.245ZM46.5832 132.43V147.13C46.5832 148.6 46.9449 149.732 47.6682 150.525C48.3915 151.318 49.4532 151.715 50.8532 151.715C52.2532 151.715 53.3265 151.318 54.0732 150.525C54.8199 149.732 55.1932 148.6 55.1932 147.13V132.43H61.1782V147.095C61.1782 149.288 60.7115 151.143 59.7782 152.66C58.8449 154.177 57.5849 155.32 55.9982 156.09C54.4349 156.86 52.6849 157.245 50.7482 157.245C48.8115 157.245 47.0732 156.872 45.5332 156.125C44.0165 155.355 42.8149 154.212 41.9282 152.695C41.0415 151.155 40.5982 149.288 40.5982 147.095V132.43H46.5832ZM81.6909 140.2C81.2476 139.383 80.6059 138.765 79.7659 138.345C78.9493 137.902 77.9809 137.68 76.8609 137.68C74.9243 137.68 73.3726 138.322 72.2059 139.605C71.0393 140.865 70.4559 142.557 70.4559 144.68C70.4559 146.943 71.0626 148.717 72.2759 150C73.5126 151.26 75.2043 151.89 77.3509 151.89C78.8209 151.89 80.0576 151.517 81.0609 150.77C82.0876 150.023 82.8343 148.95 83.3009 147.55H75.7059V143.14H88.7259V148.705C88.2826 150.198 87.5243 151.587 86.4509 152.87C85.4009 154.153 84.0593 155.192 82.4259 155.985C80.7926 156.778 78.9493 157.175 76.8959 157.175C74.4693 157.175 72.2993 156.65 70.3859 155.6C68.4959 154.527 67.0143 153.045 65.9409 151.155C64.8909 149.265 64.3659 147.107 64.3659 144.68C64.3659 142.253 64.8909 140.095 65.9409 138.205C67.0143 136.292 68.4959 134.81 70.3859 133.76C72.2759 132.687 74.4343 132.15 76.8609 132.15C79.8009 132.15 82.2743 132.862 84.2809 134.285C86.3109 135.708 87.6526 137.68 88.3059 140.2H81.6909ZM98.0261 137.225V142.195H106.041V146.815H98.0261V152.205H107.091V157H92.0411V132.43H107.091V137.225H98.0261ZM119.867 157.245C118.07 157.245 116.46 156.953 115.037 156.37C113.613 155.787 112.47 154.923 111.607 153.78C110.767 152.637 110.323 151.26 110.277 149.65H116.647C116.74 150.56 117.055 151.26 117.592 151.75C118.128 152.217 118.828 152.45 119.692 152.45C120.578 152.45 121.278 152.252 121.792 151.855C122.305 151.435 122.562 150.863 122.562 150.14C122.562 149.533 122.352 149.032 121.932 148.635C121.535 148.238 121.033 147.912 120.427 147.655C119.843 147.398 119.003 147.107 117.907 146.78C116.32 146.29 115.025 145.8 114.022 145.31C113.018 144.82 112.155 144.097 111.432 143.14C110.708 142.183 110.347 140.935 110.347 139.395C110.347 137.108 111.175 135.323 112.832 134.04C114.488 132.733 116.647 132.08 119.307 132.08C122.013 132.08 124.195 132.733 125.852 134.04C127.508 135.323 128.395 137.12 128.512 139.43H122.037C121.99 138.637 121.698 138.018 121.162 137.575C120.625 137.108 119.937 136.875 119.097 136.875C118.373 136.875 117.79 137.073 117.347 137.47C116.903 137.843 116.682 138.392 116.682 139.115C116.682 139.908 117.055 140.527 117.802 140.97C118.548 141.413 119.715 141.892 121.302 142.405C122.888 142.942 124.172 143.455 125.152 143.945C126.155 144.435 127.018 145.147 127.742 146.08C128.465 147.013 128.827 148.215 128.827 149.685C128.827 151.085 128.465 152.357 127.742 153.5C127.042 154.643 126.015 155.553 124.662 156.23C123.308 156.907 121.71 157.245 119.867 157.245ZM150.185 132.43V137.225H143.675V157H137.69V137.225H131.18V132.43H150.185ZM168.484 152.66H159.314L157.844 157H151.579L160.469 132.43H167.399L176.289 157H169.954L168.484 152.66ZM166.944 148.04L163.899 139.045L160.889 148.04H166.944ZM156.934 130.715C157.494 127.262 159.104 125.535 161.764 125.535C162.277 125.535 162.72 125.617 163.094 125.78C163.49 125.92 163.969 126.142 164.529 126.445C164.949 126.678 165.287 126.853 165.544 126.97C165.8 127.063 166.069 127.11 166.349 127.11C167.212 127.11 167.714 126.585 167.854 125.535H170.934C170.374 128.988 168.764 130.715 166.104 130.715C165.59 130.715 165.135 130.645 164.739 130.505C164.365 130.342 163.899 130.108 163.339 129.805C162.919 129.572 162.58 129.408 162.324 129.315C162.067 129.198 161.799 129.14 161.519 129.14C160.655 129.14 160.142 129.665 159.979 130.715H156.934ZM190.614 157.245C188.304 157.245 186.181 156.708 184.244 155.635C182.331 154.562 180.803 153.068 179.659 151.155C178.539 149.218 177.979 147.048 177.979 144.645C177.979 142.242 178.539 140.083 179.659 138.17C180.803 136.257 182.331 134.763 184.244 133.69C186.181 132.617 188.304 132.08 190.614 132.08C192.924 132.08 195.036 132.617 196.949 133.69C198.886 134.763 200.403 136.257 201.499 138.17C202.619 140.083 203.179 142.242 203.179 144.645C203.179 147.048 202.619 149.218 201.499 151.155C200.379 153.068 198.863 154.562 196.949 155.635C195.036 156.708 192.924 157.245 190.614 157.245ZM190.614 151.785C192.574 151.785 194.138 151.132 195.304 149.825C196.494 148.518 197.089 146.792 197.089 144.645C197.089 142.475 196.494 140.748 195.304 139.465C194.138 138.158 192.574 137.505 190.614 137.505C188.631 137.505 187.044 138.147 185.854 139.43C184.688 140.713 184.104 142.452 184.104 144.645C184.104 146.815 184.688 148.553 185.854 149.86C187.044 151.143 188.631 151.785 190.614 151.785Z" fill="white"/>
<mask id="mask0_174_407" style="mask-type:alpha" maskUnits="userSpaceOnUse" x="218" y="34" width="182" height="182">
<rect x="218.125" y="57.6079" width="160" height="160" transform="rotate(-8.43987 218.125 57.6079)" fill="#D9D9D9"/>
</mask>
<g mask="url(#mask0_174_407)">
<path d="M275.304 170.437L262.387 187.855C260.609 190.253 258.288 191.075 255.424 190.321C252.56 189.566 250.908 187.705 250.467 184.738L235.227 82.0288C234.689 78.4018 235.52 75.1053 237.72 72.1392C239.919 69.1732 242.832 67.4211 246.459 66.8829L351.971 51.2273C355.598 50.6891 358.894 51.5198 361.861 53.7194C364.827 55.919 366.579 58.8323 367.117 62.4593L378.859 141.593C379.397 145.22 378.566 148.516 376.366 151.482C374.167 154.449 371.254 156.201 367.627 156.739L275.304 170.437ZM277.985 143.081L317.551 137.21C319.42 136.933 320.892 136.069 321.969 134.617C323.045 133.166 323.445 131.506 323.167 129.637C322.89 127.769 322.026 126.296 320.574 125.22C319.123 124.144 317.463 123.744 315.594 124.021L276.028 129.892C274.159 130.169 272.687 131.034 271.61 132.485C270.534 133.937 270.134 135.597 270.412 137.465C270.689 139.334 271.553 140.806 273.005 141.882C274.456 142.959 276.116 143.358 277.985 143.081ZM275.049 123.298L340.994 113.513C342.862 113.236 344.335 112.371 345.411 110.92C346.487 109.468 346.887 107.808 346.61 105.94C346.333 104.072 345.468 102.599 344.017 101.523C342.565 100.446 340.905 100.047 339.037 100.324L273.092 110.109C271.224 110.386 269.751 111.25 268.675 112.702C267.599 114.153 267.199 115.813 267.476 117.682C267.753 119.55 268.618 121.023 270.069 122.099C271.521 123.175 273.181 123.575 275.049 123.298ZM272.114 103.514L338.058 93.7295C339.927 93.4523 341.399 92.5879 342.476 91.1364C343.552 89.685 343.952 88.025 343.674 86.1566C343.397 84.2881 342.533 82.8157 341.081 81.7393C339.63 80.6629 337.97 80.2633 336.101 80.5406L270.157 90.3253C268.288 90.6026 266.816 91.4669 265.74 92.9184C264.663 94.3699 264.264 96.0299 264.541 97.8983C264.818 99.7667 265.682 101.239 267.134 102.316C268.585 103.392 270.245 103.792 272.114 103.514Z" fill="white"/>
</g>
</g>
<defs>
<clipPath id="clip0_174_407">
<rect width="360" height="200" rx="24" fill="white"/>
</clipPath>
</defs>
</svg>
