<svg width="166" height="56" viewBox="0 0 166 56" fill="none" xmlns="http://www.w3.org/2000/svg">
<path d="M29.2091 8.93592C28.5526 6.93976 29.6359 4.78848 31.6285 4.13089L43.5642 0.192101C45.5569 -0.465489 47.7044 0.619631 48.3609 2.61579L52.2801 14.5335C52.9365 16.5296 51.8533 18.6809 49.8606 19.3385L37.925 23.2773C35.9323 23.9349 33.7847 22.8498 33.1283 20.8536L29.2091 8.93592Z" fill="#19AAE3"/>
<path d="M36.491 7.46803L39.5908 16.894C39.6927 17.2041 40.0259 17.3704 40.333 17.269C40.4928 17.2163 40.625 17.0966 40.6915 16.9394L41.9976 13.8454L44.4442 16.3153C44.7768 16.6508 45.3175 16.6527 45.6524 16.3195C45.9873 15.9864 45.9892 15.4447 45.6567 15.1092L43.2673 12.6937L46.2643 11.7047C46.5739 11.6026 46.7423 11.268 46.6403 10.9579C46.5877 10.7977 46.469 10.6678 46.3146 10.6004L37.3259 6.70501C37.185 6.64442 37.0304 6.63625 36.8858 6.68399C36.5609 6.79118 36.384 7.14265 36.491 7.46803Z" fill="white"/>
<path d="M26.8978 35.0717C26.2413 33.0755 27.3245 30.9242 29.3172 30.2666L51.1082 23.0756C53.1009 22.418 55.2484 23.5031 55.9049 25.4993L59.8241 37.417C60.4805 39.4131 59.3973 41.5644 57.4046 42.222L35.6136 49.413C33.621 50.0706 31.4734 48.9855 30.817 46.9894L26.8978 35.0717Z" fill="#23BC60"/>
<path d="M43.534 37.1326C44.566 36.7921 45.4207 36.0547 45.9101 35.0829C46.3995 34.111 46.4834 32.9842 46.1434 31.9503C45.8034 30.9165 45.0674 30.0602 44.0972 29.57C43.127 29.0798 42.0022 28.9957 40.9701 29.3363C39.938 29.6769 39.0833 30.4142 38.5939 31.3861C38.1046 32.358 38.0207 33.4848 38.3606 34.5187C38.7006 35.5525 39.4367 36.4087 40.4069 36.8989C41.3771 37.3892 42.5019 37.4732 43.534 37.1326ZM41.2597 38.8434C38.8519 39.638 37.5436 42.2364 38.3368 44.6483C38.4881 45.1085 38.983 45.3563 39.4397 45.2056L51.6165 41.1873C52.0759 41.0357 52.3232 40.5399 52.1728 40.0824C51.3796 37.6704 48.7858 36.3598 46.378 37.1544L41.2597 38.8434Z" fill="white"/>
<path d="M7.75998 41.5255C7.10354 39.5293 8.18677 37.378 10.1795 36.7205L18.406 34.0057C20.3987 33.3481 22.5462 34.4332 23.2027 36.4294L27.1025 48.2881C27.7589 50.2843 26.6757 52.4355 24.683 53.0931L16.4565 55.8079C14.4638 56.4655 12.3162 55.3804 11.6598 53.3842L7.75998 41.5255Z" fill="#E94C4E"/>
<path d="M15.9856 40.7208C13.6659 41.4863 12.4055 43.9894 13.1697 46.3131L13.4357 47.1221C13.5242 47.3911 13.3793 47.6788 13.1108 47.7674C12.8423 47.856 12.5551 47.7109 12.4667 47.4419L12.2007 46.6329C11.2602 43.7733 12.8117 40.6921 15.6664 39.7501C18.5211 38.808 21.5969 40.3622 22.5373 43.2218L23.4957 46.1361C23.8189 47.119 23.2855 48.1783 22.3023 48.5027L20.0748 49.2356C20.0024 49.5801 19.7539 49.8795 19.3946 49.9981L18.7485 50.2113C18.2135 50.3878 17.6365 50.0963 17.4602 49.5603C17.284 49.0244 17.5751 48.4464 18.1101 48.2698L18.7561 48.0566C19.1155 47.938 19.4929 48.0309 19.7556 48.2648L21.9851 47.5313C22.4312 47.3841 22.6736 46.9028 22.5266 46.4559L21.5682 43.5416C20.8041 41.2179 18.3053 39.9553 15.9856 40.7208ZM14.7886 44.7028L15.1116 44.5962C15.469 44.4783 15.8528 44.6722 15.9705 45.0302L16.7154 47.2953C16.8331 47.6532 16.6395 48.0377 16.2821 48.1556L15.9591 48.2622C15.2465 48.4974 14.4762 48.1082 14.2414 47.3943L13.9222 46.4235C13.6874 45.7096 14.0759 44.938 14.7886 44.7028ZM19.3109 43.2105C20.0235 42.9753 20.7938 43.3645 21.0286 44.0784L21.3478 45.0491C21.5826 45.763 21.1941 46.5347 20.4814 46.7699L20.1584 46.8765C19.801 46.9944 19.4172 46.8005 19.2995 46.4425L18.5546 44.1774C18.4369 43.8195 18.6305 43.435 18.9879 43.3171L19.3109 43.2105Z" fill="white"/>
<path d="M0.191767 18.5117C-0.46468 16.5156 0.618554 14.3643 2.61124 13.7067L20.6763 7.74519C22.6689 7.0876 24.8165 8.17272 25.4729 10.1689L29.3727 22.0276C30.0292 24.0238 28.946 26.175 26.9533 26.8326L8.88825 32.7941C6.89557 33.4517 4.74803 32.3666 4.09158 30.3704L0.191767 18.5117Z" fill="#FFDD35"/>
<path d="M16.5529 25.4415C20.3358 24.1931 22.5835 20.6931 21.5736 17.6221C20.5637 14.5512 16.6795 13.0746 12.8965 14.323C9.11359 15.5714 6.86593 19.0714 7.87583 22.1424C8.27224 23.3478 9.11229 24.306 10.2146 24.9526C10.3791 25.6242 10.3166 26.2907 10.1949 26.8226C10.1287 27.1171 10.0439 27.3643 9.97814 27.5342C9.94393 27.6195 9.91782 27.6844 9.89714 27.7298C9.88637 27.7511 9.88006 27.768 9.87467 27.7787L9.86928 27.7893C9.78665 27.9529 9.81163 28.1461 9.93125 28.2844C10.0509 28.4227 10.2403 28.4757 10.4142 28.4183C11.182 28.1649 11.877 27.6719 12.4277 27.1821C12.9524 26.7126 13.3695 26.2224 13.6114 25.8848C14.5633 25.9114 15.5612 25.7717 16.5538 25.4442L16.5529 25.4415ZM11.019 20.157C11.2461 20.0821 11.4935 20.1004 11.7068 20.2078C11.9201 20.3152 12.0818 20.503 12.1564 20.7298C12.231 20.9566 12.2123 21.2039 12.1045 21.4173C11.9967 21.6307 11.8086 21.7927 11.5815 21.8676C11.3545 21.9425 11.1071 21.9243 10.8938 21.8169C10.6805 21.7094 10.5188 21.5217 10.4442 21.2948C10.3696 21.068 10.3882 20.8207 10.496 20.6073C10.6038 20.3939 10.792 20.232 11.019 20.157ZM14.4435 19.027C14.6705 18.9521 14.9179 18.9703 15.1312 19.0777C15.3445 19.1851 15.5062 19.3729 15.5808 19.5997C15.6554 19.8266 15.6368 20.0739 15.529 20.2872C15.4212 20.5006 15.233 20.6626 15.006 20.7375C14.7789 20.8124 14.5315 20.7942 14.3182 20.6868C14.1049 20.5794 13.9432 20.3916 13.8686 20.1648C13.794 19.9379 13.8127 19.6906 13.9205 19.4773C14.0283 19.2639 14.2164 19.1019 14.4435 19.027ZM17.293 19.0347C17.2185 18.8079 17.2371 18.5606 17.3449 18.3472C17.4527 18.1338 17.6408 17.9718 17.8679 17.8969C18.095 17.822 18.3423 17.8402 18.5556 17.9476C18.7689 18.055 18.9307 18.2428 19.0053 18.4697C19.0799 18.6965 19.0612 18.9438 18.9534 19.1572C18.8456 19.3705 18.6575 19.5325 18.4304 19.6074C18.2034 19.6824 17.956 19.6641 17.7427 19.5567C17.5294 19.4493 17.3676 19.2615 17.293 19.0347Z" fill="white"/>
<path d="M85.0821 22.464L81.5464 33.3323V33.3161C81.4818 33.4778 81.3903 33.6126 81.2719 33.7204C81.1643 33.8175 81.0297 33.866 80.8683 33.866C80.7822 33.866 80.6961 33.8552 80.6099 33.8336C80.5346 33.8229 80.4539 33.8067 80.3678 33.7851H80.3839C79.7704 33.591 79.5444 33.246 79.7058 32.75L83.3869 21.5421C83.4407 21.3696 83.5322 21.224 83.6613 21.1054C83.8013 20.9868 83.9627 20.9168 84.1457 20.8952C84.3287 20.8628 84.5063 20.8413 84.6785 20.8305C84.8507 20.8089 84.9852 20.7982 85.0821 20.7982C85.179 20.7982 85.3135 20.8089 85.4857 20.8305C85.6579 20.8413 85.8355 20.8575 86.0185 20.879C86.1692 20.9006 86.3145 20.9814 86.4544 21.1216C86.6051 21.2618 86.7181 21.4019 86.7935 21.5421C87.3962 23.3966 88.0043 25.2673 88.6179 27.1542C89.2421 29.0302 89.8556 30.8955 90.4584 32.75C90.6091 33.246 90.383 33.591 89.7803 33.7851C89.6942 33.8067 89.6134 33.8229 89.5381 33.8336C89.4735 33.8552 89.3982 33.866 89.3121 33.866C89.1614 33.866 89.0215 33.8175 88.8923 33.7204C88.7739 33.6126 88.6878 33.4778 88.634 33.3161V33.3323L85.0821 22.464ZM86.293 29.8389C86.293 30.1839 86.1692 30.4804 85.9216 30.7284C85.6849 30.9656 85.3942 31.0842 85.0498 31.0842C84.7054 31.0842 84.4148 30.9656 84.178 30.7284C83.9412 30.4804 83.8228 30.1839 83.8228 29.8389C83.8228 29.4939 83.9412 29.2028 84.178 28.9655C84.4148 28.7176 84.7054 28.5936 85.0498 28.5936C85.3942 28.5936 85.6849 28.7176 85.9216 28.9655C86.1692 29.2028 86.293 29.4939 86.293 29.8389Z" fill="#434343"/>
<path d="M110.293 31.1327C110.293 32.0061 110.003 32.6584 109.421 33.0897C109.142 33.2945 108.851 33.4563 108.55 33.5749C108.259 33.6827 107.974 33.7366 107.694 33.7366H104.174C103.894 33.7366 103.604 33.6827 103.302 33.5749C103.012 33.4563 102.727 33.2945 102.447 33.0897C102.167 32.874 101.952 32.6099 101.801 32.2972C101.65 31.9737 101.575 31.5856 101.575 31.1327V21.5745C101.575 21.0569 101.892 20.7982 102.527 20.7982C103.173 20.7982 103.496 21.0569 103.496 21.5745V31.0034C103.496 31.2837 103.577 31.5371 103.738 31.7635C103.9 31.9899 104.18 32.1031 104.578 32.1031H107.29C107.688 32.1031 107.968 31.9899 108.13 31.7635C108.291 31.5371 108.372 31.2837 108.372 31.0034V21.5745C108.372 21.0569 108.689 20.7982 109.325 20.7982C109.97 20.7982 110.293 21.0569 110.293 21.5745V31.1327Z" fill="#434343"/>
<path d="M127.026 28.3995H125.782C125.599 28.3995 125.454 28.3294 125.346 28.1892C125.25 28.0383 125.201 27.8388 125.201 27.5908C125.201 27.041 125.427 26.766 125.879 26.766H127.768C128.166 26.766 128.446 26.6528 128.608 26.4264C128.769 26.2 128.85 25.952 128.85 25.6824V23.5961C128.85 23.3265 128.769 23.0786 128.608 22.8521C128.446 22.6257 128.166 22.5125 127.768 22.5125H124.362V33.0573C124.362 33.5749 124.044 33.8336 123.409 33.8336C122.774 33.8336 122.457 33.5749 122.457 33.0573V21.8494C122.457 21.4612 122.553 21.2025 122.747 21.0731C122.952 20.9437 123.194 20.879 123.474 20.879H128.172C128.452 20.879 128.742 20.9383 129.044 21.0569C129.345 21.1755 129.636 21.3265 129.916 21.5098H129.899C130.179 21.7146 130.394 21.9842 130.545 22.3184C130.696 22.6419 130.771 23.0193 130.771 23.4505V25.8118C130.771 26.6851 130.481 27.3375 129.899 27.7687C129.781 27.855 129.652 27.9359 129.512 28.0113C129.383 28.0868 129.248 28.1623 129.108 28.2378L131.691 32.5075C131.724 32.5614 131.756 32.6314 131.788 32.7177C131.821 32.804 131.837 32.874 131.837 32.928C131.837 33.1867 131.654 33.4347 131.288 33.6719V33.6557C131.04 33.8067 130.83 33.8822 130.658 33.8822C130.411 33.8822 130.212 33.7582 130.061 33.5102L130.077 33.5264L127.026 28.3995Z" fill="#434343"/>
<path d="M145.008 33.0412C145.008 33.5587 144.685 33.8175 144.04 33.8175C143.405 33.8175 143.087 33.5587 143.087 33.0412V21.5745C143.087 21.0569 143.405 20.7982 144.04 20.7982C144.685 20.7982 145.008 21.0569 145.008 21.5745V33.0412Z" fill="#434343"/>
<path d="M163.401 26.3293C163.681 26.3293 163.971 26.3886 164.272 26.5072C164.574 26.6258 164.864 26.7822 165.144 26.9763H165.128C165.408 27.1703 165.623 27.4345 165.774 27.7687C165.925 28.103 166 28.4857 166 28.917V31.1327C166 32.0061 165.709 32.6584 165.128 33.0897C164.848 33.2945 164.558 33.4563 164.256 33.5749C163.966 33.6827 163.681 33.7366 163.401 33.7366H159.881C159.601 33.7366 159.311 33.6827 159.009 33.5749C158.719 33.4563 158.433 33.2945 158.154 33.0897C157.572 32.6584 157.282 32.0061 157.282 31.1327V30.0653C157.282 29.5586 157.599 29.3052 158.234 29.3052C158.88 29.3052 159.203 29.5586 159.203 30.0653V31.0034C159.203 31.2837 159.284 31.5371 159.445 31.7635C159.607 31.9899 159.886 32.1031 160.285 32.1031H162.997C163.395 32.1031 163.675 31.9899 163.837 31.7635C163.998 31.5371 164.079 31.2837 164.079 31.0034V29.0464C164.079 28.7769 163.998 28.5289 163.837 28.3025C163.675 28.0652 163.395 27.9466 162.997 27.9466H159.881C159.321 27.9466 158.746 27.7418 158.154 27.3321C157.572 26.8792 157.282 26.2269 157.282 25.3751V23.4505C157.282 23.0193 157.357 22.6419 157.508 22.3184C157.658 21.9842 157.874 21.7146 158.154 21.5098H158.137C158.417 21.3265 158.708 21.1755 159.009 21.0569C159.311 20.9383 159.601 20.879 159.881 20.879H163.401C163.681 20.879 163.971 20.9383 164.272 21.0569C164.574 21.1755 164.864 21.3265 165.144 21.5098H165.128C165.408 21.7146 165.623 21.9842 165.774 22.3184C165.925 22.6419 166 23.0193 166 23.4505V24.4047C166 24.9115 165.677 25.1649 165.031 25.1649C164.396 25.1649 164.079 24.9115 164.079 24.4047V23.5961C164.079 23.3265 163.998 23.0786 163.837 22.8521C163.675 22.6257 163.395 22.5125 162.997 22.5125H160.285C159.886 22.5125 159.607 22.6257 159.445 22.8521C159.284 23.0786 159.203 23.3265 159.203 23.5961V25.2457C159.203 25.5261 159.284 25.7795 159.445 26.0059C159.607 26.2215 159.886 26.3293 160.285 26.3293H163.401Z" fill="#434343"/>
</svg>
