<svg width="1240" height="500" viewBox="0 0 1240 500" fill="none" xmlns="http://www.w3.org/2000/svg">
<path d="M584.826 215.008L562.488 283.552V283.45C562.08 284.47 561.502 285.32 560.754 286C560.074 286.612 559.224 286.918 558.204 286.918C557.66 286.918 557.116 286.85 556.572 286.714C556.096 286.646 555.586 286.544 555.042 286.408H555.144C551.268 285.184 549.84 283.008 550.86 279.88L574.116 209.194C574.456 208.106 575.034 207.188 575.85 206.44C576.734 205.692 577.754 205.25 578.91 205.114C580.066 204.91 581.188 204.774 582.276 204.706C583.364 204.57 584.214 204.502 584.826 204.502C585.438 204.502 586.288 204.57 587.376 204.706C588.464 204.774 589.586 204.876 590.742 205.012C591.694 205.148 592.612 205.658 593.496 206.542C594.448 207.426 595.162 208.31 595.638 209.194C599.446 220.89 603.288 232.688 607.164 244.588C611.108 256.42 614.984 268.184 618.792 279.88C619.744 283.008 618.316 285.184 614.508 286.408C613.964 286.544 613.454 286.646 612.978 286.714C612.57 286.85 612.094 286.918 611.55 286.918C610.598 286.918 609.714 286.612 608.898 286C608.15 285.32 607.606 284.47 607.266 283.45V283.552L584.826 215.008ZM592.476 261.52C592.476 263.696 591.694 265.566 590.13 267.13C588.634 268.626 586.798 269.374 584.622 269.374C582.446 269.374 580.61 268.626 579.114 267.13C577.618 265.566 576.87 263.696 576.87 261.52C576.87 259.344 577.618 257.508 579.114 256.012C580.61 254.448 582.446 253.666 584.622 253.666C586.798 253.666 588.634 254.448 590.13 256.012C591.694 257.508 592.476 259.344 592.476 261.52ZM744.104 269.68C744.104 275.188 742.268 279.302 738.596 282.022C736.828 283.314 734.992 284.334 733.088 285.082C731.252 285.762 729.45 286.102 727.682 286.102H705.446C703.678 286.102 701.842 285.762 699.938 285.082C698.102 284.334 696.3 283.314 694.532 282.022C692.764 280.662 691.404 278.996 690.452 277.024C689.5 274.984 689.024 272.536 689.024 269.68V209.398C689.024 206.134 691.03 204.502 695.042 204.502C699.122 204.502 701.162 206.134 701.162 209.398V268.864C701.162 270.632 701.672 272.23 702.692 273.658C703.712 275.086 705.48 275.8 707.996 275.8H725.132C727.648 275.8 729.416 275.086 730.436 273.658C731.456 272.23 731.966 270.632 731.966 268.864V209.398C731.966 206.134 733.972 204.502 737.984 204.502C742.064 204.502 744.104 206.134 744.104 209.398V269.68ZM849.815 252.442H841.961C840.805 252.442 839.887 252 839.207 251.116C838.595 250.164 838.289 248.906 838.289 247.342C838.289 243.874 839.717 242.14 842.573 242.14H854.507C857.023 242.14 858.791 241.426 859.811 239.998C860.831 238.57 861.341 237.006 861.341 235.306V222.148C861.341 220.448 860.831 218.884 859.811 217.456C858.791 216.028 857.023 215.314 854.507 215.314H832.985V281.818C832.985 285.082 830.979 286.714 826.967 286.714C822.955 286.714 820.949 285.082 820.949 281.818V211.132C820.949 208.684 821.561 207.052 822.785 206.236C824.077 205.42 825.607 205.012 827.375 205.012H857.057C858.825 205.012 860.661 205.386 862.565 206.134C864.469 206.882 866.305 207.834 868.073 208.99H867.971C869.739 210.282 871.099 211.982 872.051 214.09C873.003 216.13 873.479 218.51 873.479 221.23V236.122C873.479 241.63 871.643 245.744 867.971 248.464C867.223 249.008 866.407 249.518 865.523 249.994C864.707 250.47 863.857 250.946 862.973 251.422L879.293 278.35C879.497 278.69 879.701 279.132 879.905 279.676C880.109 280.22 880.211 280.662 880.211 281.002C880.211 282.634 879.055 284.198 876.743 285.694V285.592C875.179 286.544 873.853 287.02 872.765 287.02C871.201 287.02 869.943 286.238 868.991 284.674L869.093 284.776L849.815 252.442ZM963.426 281.716C963.426 284.98 961.386 286.612 957.306 286.612C953.294 286.612 951.288 284.98 951.288 281.716V209.398C951.288 206.134 953.294 204.502 957.306 204.502C961.386 204.502 963.426 206.134 963.426 209.398V281.716ZM1079.62 239.386C1081.39 239.386 1083.23 239.76 1085.13 240.508C1087.04 241.256 1088.87 242.242 1090.64 243.466H1090.54C1092.31 244.69 1093.67 246.356 1094.62 248.464C1095.57 250.572 1096.05 252.986 1096.05 255.706V269.68C1096.05 275.188 1094.21 279.302 1090.54 282.022C1088.77 283.314 1086.93 284.334 1085.03 285.082C1083.19 285.762 1081.39 286.102 1079.62 286.102H1057.39C1055.62 286.102 1053.78 285.762 1051.88 285.082C1050.04 284.334 1048.24 283.314 1046.47 282.022C1042.8 279.302 1040.97 275.188 1040.97 269.68V262.948C1040.97 259.752 1042.97 258.154 1046.98 258.154C1051.06 258.154 1053.1 259.752 1053.1 262.948V268.864C1053.1 270.632 1053.61 272.23 1054.63 273.658C1055.65 275.086 1057.42 275.8 1059.94 275.8H1077.07C1079.59 275.8 1081.36 275.086 1082.38 273.658C1083.4 272.23 1083.91 270.632 1083.91 268.864V256.522C1083.91 254.822 1083.4 253.258 1082.38 251.83C1081.36 250.334 1079.59 249.586 1077.07 249.586H1057.39C1053.85 249.586 1050.21 248.294 1046.47 245.71C1042.8 242.854 1040.97 238.74 1040.97 233.368V221.23C1040.97 218.51 1041.44 216.13 1042.39 214.09C1043.35 211.982 1044.71 210.282 1046.47 208.99H1046.37C1048.14 207.834 1049.98 206.882 1051.88 206.134C1053.78 205.386 1055.62 205.012 1057.39 205.012H1079.62C1081.39 205.012 1083.23 205.386 1085.13 206.134C1087.04 206.882 1088.87 207.834 1090.64 208.99H1090.54C1092.31 210.282 1093.67 211.982 1094.62 214.09C1095.57 216.13 1096.05 218.51 1096.05 221.23V227.248C1096.05 230.444 1094.01 232.042 1089.93 232.042C1085.91 232.042 1083.91 230.444 1083.91 227.248V222.148C1083.91 220.448 1083.4 218.884 1082.38 217.456C1081.36 216.028 1079.59 215.314 1077.07 215.314H1059.94C1057.42 215.314 1055.65 216.028 1054.63 217.456C1053.61 218.884 1053.1 220.448 1053.1 222.148V232.552C1053.1 234.32 1053.61 235.918 1054.63 237.346C1055.65 238.706 1057.42 239.386 1059.94 239.386H1079.62Z" fill="#434343"/>
<path d="M235.818 123.364C229.085 102.938 240.195 80.926 260.633 74.1974L325.125 52.9656C345.563 46.237 367.589 57.3402 374.322 77.7653L395.475 141.936C402.208 162.361 391.098 184.374 370.66 191.102L306.168 212.334C285.73 219.063 263.704 207.959 256.971 187.534L235.818 123.364Z" fill="#19AAE3"/>
<path d="M284.885 101.867L307.303 169.873C308.04 172.11 310.45 173.31 312.67 172.579C313.826 172.198 314.783 171.334 315.263 170.2L324.709 147.878L342.402 165.697C344.808 168.118 348.718 168.132 351.14 165.728C353.562 163.325 353.576 159.417 351.171 156.996L333.891 139.569L355.565 132.433C357.804 131.696 359.022 129.282 358.285 127.045C357.904 125.89 357.046 124.952 355.929 124.466L290.923 96.3617C289.904 95.9246 288.786 95.8657 287.74 96.2101C285.391 96.9834 284.111 99.5192 284.885 101.867Z" fill="white"/>
<path d="M219.103 311.927C212.37 291.501 223.48 269.489 243.918 262.76L379.682 218.064C400.121 211.336 422.147 222.439 428.88 242.864L450.033 307.035C456.766 327.46 445.656 349.472 425.218 356.201L289.453 400.897C269.015 407.626 246.989 396.522 240.256 376.097L219.103 311.927Z" fill="#23BC60"/>
<path d="M335.819 315.89C343.283 313.432 349.465 308.113 353.004 301.101C356.543 294.089 357.15 285.959 354.691 278.5C352.232 271.041 346.909 264.864 339.893 261.327C332.876 257.79 324.742 257.184 317.278 259.641C309.814 262.098 303.633 267.418 300.094 274.43C296.555 281.442 295.948 289.571 298.406 297.03C300.865 304.489 306.188 310.667 313.205 314.203C320.221 317.74 328.356 318.347 335.819 315.89ZM319.372 328.232C301.959 333.965 292.497 352.712 298.234 370.113C299.328 373.434 302.907 375.222 306.21 374.134L394.272 345.143C397.594 344.049 399.383 340.472 398.295 337.171C392.559 319.77 373.8 310.314 356.387 316.046L319.372 328.232Z" fill="white"/>
<path d="M80.6996 358.489C73.9667 338.064 85.0769 316.052 105.515 309.323L143.182 296.922C163.621 290.194 185.647 301.297 192.38 321.722L213.393 385.467C220.126 405.893 209.016 427.905 188.577 434.634L150.91 447.034C130.472 453.763 108.445 442.66 101.713 422.235L80.6996 358.489Z" fill="#E94C4E"/>
<path d="M136.592 341.777C119.816 347.3 110.701 365.36 116.227 382.125L118.151 387.961C118.791 389.902 117.743 391.977 115.801 392.617C113.86 393.256 111.783 392.209 111.143 390.268L109.219 384.432C102.418 363.8 113.638 341.57 134.283 334.774C154.928 327.977 177.172 339.19 183.973 359.822L190.904 380.847C193.241 387.939 189.384 395.581 182.273 397.922L166.164 403.209C165.64 405.695 163.844 407.855 161.245 408.711L156.573 410.249C152.704 411.523 148.531 409.419 147.256 405.552C145.981 401.686 148.086 397.515 151.956 396.242L156.628 394.703C159.227 393.848 161.956 394.518 163.856 396.206L179.979 390.914C183.206 389.851 184.959 386.379 183.896 383.155L176.965 362.129C171.438 345.364 153.367 336.255 136.592 341.777ZM127.935 370.507L130.271 369.738C132.855 368.887 135.631 370.286 136.482 372.869L141.869 389.21C142.72 391.793 141.32 394.567 138.736 395.418L136.4 396.187C131.246 397.884 125.675 395.076 123.978 389.925L121.669 382.921C119.971 377.771 122.781 372.203 127.935 370.507ZM160.64 359.74C165.794 358.043 171.364 360.851 173.062 366.002L175.371 373.005C177.069 378.156 174.259 383.723 169.105 385.42L166.769 386.189C164.185 387.04 161.409 385.641 160.558 383.058L155.171 366.716C154.319 364.133 155.719 361.359 158.304 360.509L160.64 359.74Z" fill="white"/>
<path d="M25.9669 192.45C19.234 172.025 30.3442 150.013 50.7824 143.284L159.601 107.459C180.039 100.731 202.066 111.834 208.798 132.259L229.811 196.004C236.544 216.429 225.434 238.442 204.996 245.17L96.1773 280.996C75.7392 287.724 53.7127 276.621 46.9798 256.196L25.9669 192.45Z" fill="#FFDD35"/>
<path d="M140.694 231.541C168.052 222.534 184.307 197.282 177.003 175.126C169.7 152.97 141.609 142.317 114.251 151.324C86.8934 160.33 70.6386 185.583 77.9421 207.739C80.8088 216.435 86.884 223.349 94.8559 228.014C96.0457 232.859 95.5933 237.668 94.7137 241.506C94.2343 243.63 93.6212 245.414 93.1458 246.639C92.8984 247.255 92.7096 247.723 92.5601 248.05C92.4821 248.204 92.4365 248.326 92.3975 248.403L92.3585 248.48C91.7609 249.66 91.9417 251.054 92.8067 252.052C93.6718 253.05 95.0419 253.432 96.2995 253.018C101.852 251.19 106.878 247.633 110.861 244.099C114.656 240.712 117.672 237.175 119.421 234.739C126.305 234.931 133.522 233.923 140.7 231.56L140.694 231.541ZM100.673 193.415C102.315 192.874 104.104 193.006 105.647 193.781C107.19 194.556 108.359 195.911 108.899 197.547C109.438 199.184 109.303 200.968 108.524 202.508C107.744 204.047 106.383 205.216 104.741 205.756C103.099 206.297 101.31 206.165 99.7678 205.39C98.2252 204.615 97.0555 203.26 96.5161 201.624C95.9766 199.987 96.1115 198.203 96.8912 196.664C97.6708 195.124 99.0313 193.956 100.673 193.415ZM125.439 185.262C127.081 184.721 128.87 184.853 130.412 185.628C131.955 186.403 133.125 187.758 133.664 189.394C134.204 191.031 134.069 192.815 133.289 194.354C132.509 195.894 131.149 197.062 129.507 197.603C127.865 198.144 126.076 198.012 124.533 197.237C122.991 196.462 121.821 195.107 121.281 193.471C120.742 191.834 120.877 190.05 121.656 188.51C122.436 186.971 123.797 185.802 125.439 185.262ZM146.047 185.317C145.507 183.681 145.642 181.897 146.422 180.357C147.201 178.818 148.562 177.649 150.204 177.109C151.846 176.568 153.635 176.7 155.178 177.475C156.72 178.25 157.89 179.604 158.429 181.241C158.969 182.877 158.834 184.662 158.054 186.201C157.275 187.741 155.914 188.909 154.272 189.45C152.63 189.99 150.841 189.859 149.298 189.084C147.756 188.309 146.586 186.954 146.047 185.317Z" fill="white"/>
</svg>
