<svg width="738" height="480" viewBox="0 0 738 480" fill="none" xmlns="http://www.w3.org/2000/svg">
<path d="M30.8222 257.975C41.604 226.36 70.9452 204.798 104.245 194.675C112.907 192.042 122.207 190.845 129.994 186.352C148.623 175.606 154.296 151.744 154.825 130.841C157.779 13.9086 274.439 -1.90398 296.837 0.16622C385.673 8.37791 373.717 77.3824 425.623 115.898C459.162 140.786 511.753 101.294 548.858 120.672C580.346 137.116 580.24 183.671 609.029 204.174C629.689 218.889 645.651 198.587 680.823 229.936C726.085 270.276 738.279 381.511 675.579 445.184L91.8995 447.683C70.4084 444.049 -11.5623 382.263 30.8222 257.975Z" fill="#80DE70" fill-opacity="0.31"/>
<path d="M535.098 393.427C553.053 363.208 573.8 334.648 596.987 308.229C600.467 319.43 606.391 329.865 614.227 338.592C617.612 328.023 603.504 312.234 608.352 302.251C610.382 298.069 682.206 257.975 737.298 248.495C734.019 288.816 726.016 327.607 707.879 368.064C700.759 363.912 688.476 365.042 681.356 360.892C686.284 372.068 695.617 376.902 699.087 383.51C671.162 414.846 630.735 448.217 617.589 453.008C590.103 463.026 560.302 456.245 533.529 447.288C519.243 442.508 515.715 441.588 520.034 426.663C523.392 415.061 528.953 403.768 535.098 393.427Z" fill="#D4FFBF"/>
<path d="M554.302 450.882C594.807 384.931 647.213 326.813 708.691 279.786C710.312 278.547 708.712 275.754 707.067 277.01C645.133 324.386 592.337 382.811 551.526 449.258C550.441 451.028 553.22 452.645 554.302 450.882Z" fill="#F1FFF0"/>
<path d="M556.017 386.088C563.782 395.348 568.121 406.212 568.903 418.274C568.952 419.056 569.603 419.997 570.51 419.882C591.149 417.235 611.867 416.571 632.635 417.89C634.701 418.022 634.692 414.806 632.635 414.676C613.767 413.477 595.486 414.89 576.69 415.907C572.456 416.137 572.607 416.516 571.593 412.642C570.589 408.807 570.082 405.022 568.687 401.269C566.284 394.808 562.708 389.083 558.291 383.816C556.959 382.228 554.694 384.512 556.017 386.088Z" fill="#F1FFF0"/>
<path d="M588.96 345.653C595.325 356.575 599.306 368.263 600.83 380.813C600.933 381.662 601.482 382.44 602.437 382.42C619.364 382.075 636.224 382.824 653.054 384.667C655.108 384.892 655.092 381.676 653.054 381.453C644.65 380.532 636.232 379.829 627.784 379.455C623.564 379.267 619.338 379.153 615.112 379.111C612.52 379.085 606.772 380.201 604.66 378.621C601.703 376.409 601.233 365.664 599.914 361.738C597.831 355.538 595.024 349.676 591.734 344.03C590.694 342.244 587.915 343.86 588.96 345.653Z" fill="#F1FFF0"/>
<path d="M631.312 306.881C635.512 316.375 638.125 326.176 639.215 336.498C639.321 337.506 640.159 338.364 641.25 338.048C660.126 332.565 679.269 328.27 698.677 325.162C700.714 324.836 699.849 321.737 697.822 322.061C678.412 325.17 659.271 329.465 640.395 334.947C641.073 335.463 641.752 335.981 642.43 336.497C641.277 325.586 638.522 315.285 634.088 305.257C633.252 303.37 630.481 305.003 631.312 306.881Z" fill="#F1FFF0"/>
<path d="M478.383 183.577C480.413 161.324 483.533 138.609 493.929 118.83C504.325 99.0503 523.4 82.5112 545.684 80.8622C567.577 79.2436 592.347 92.6404 603.937 111.285C615.527 129.93 614.944 152.927 612.551 174.749C610.013 197.893 601.966 220.025 593.983 241.896C570.451 306.361 548.72 353.108 509.106 409.146C468.336 466.821 421.52 458.899 444.308 429.532C489.628 352.333 470.541 269.528 478.383 183.577Z" fill="#B4EFA5"/>
<path d="M459.073 456.39C482.637 421.373 498.596 380.763 512.829 341.253C530.829 291.283 545.43 239.745 554.553 187.389C558.929 162.272 562.054 136.82 562.136 111.295C562.142 109.226 558.928 109.223 558.921 111.295C558.764 159.904 548.572 208.507 536.226 255.32C523.416 303.899 507.295 351.939 486.725 397.805C477.926 417.424 468.321 436.898 456.295 454.766C455.138 456.488 457.922 458.1 459.073 456.39Z" fill="#F1FFF0"/>
<path d="M513.939 120.779C525.785 142.039 536.822 164.006 553.522 181.982C554.009 182.508 554.866 182.577 555.47 182.233C572.237 172.734 590.699 166.804 606.542 155.52C608.214 154.33 606.61 151.54 604.92 152.744C596.802 158.525 587.891 163.101 578.953 167.465C571.998 170.86 564.198 175.908 556.729 177.949C553.964 178.705 556.031 178.972 553.938 177.707C552.199 176.656 549.88 173.025 548.62 171.45C544.094 165.789 540.045 159.753 536.228 153.597C529.273 142.382 523.138 130.68 516.717 119.158C515.709 117.351 512.931 118.97 513.939 120.779Z" fill="#F1FFF0"/>
<path d="M491.093 187.252C508.402 200.667 522.307 218.41 537.58 233.985C538.645 235.071 540.322 237.513 541.923 237.929C545.738 238.922 553.849 232.514 557.083 230.706C571.873 222.443 585.498 212.617 597.554 200.696C599.028 199.24 596.754 196.967 595.282 198.423C584.069 209.51 571.478 218.776 557.804 226.606C554.503 228.496 545.02 235.287 542.257 234.123C539.984 233.167 537.255 229.005 535.591 227.245C522.052 212.915 509.005 197.099 493.366 184.98C491.751 183.728 489.459 185.986 491.093 187.252Z" fill="#F1FFF0"/>
<path d="M126.929 429.728C105.102 421.304 59.016 401.611 72.2393 387.565C78.2763 383.643 85.7888 382.057 92.8947 383.203C96.7538 378.442 89.3538 372.802 83.5772 370.759C68.1632 365.309 9.04996 346.656 24.906 329.87C30.104 323.641 51.3042 325.63 50.2965 324.717C32.9312 308.968 23.207 299.292 9.61734 278.399C1.00383 265.157 -6.3801 238.837 8.63046 234.189C18.2566 233.977 25.9652 241.959 31.4107 249.9C36.8562 257.842 45.8619 272.161 55.5684 281.312C55.1264 274.191 51.4987 236.476 71.9194 245.083C84.683 250.463 90.4291 288.09 101.246 301.928C102.691 303.778 105.031 305.786 107.084 304.645C108.354 303.939 108.762 302.356 109.379 301.04C113.086 293.149 125.883 294.893 131.087 301.887C136.292 308.88 136.461 318.236 137.555 326.885C138.65 335.532 141.787 345.17 149.782 348.643C150.926 343.643 152.193 338.401 155.655 334.618C159.117 330.834 165.535 329.233 169.394 332.612C171.254 334.24 172.18 336.661 173.007 338.99C186.518 376.996 214.045 424.999 229.73 460.673C226.656 458.299 143.997 436.316 126.929 429.728Z" fill="#A7EFA5"/>
<path d="M17.1443 264.498C77.0114 340.7 153.104 401.906 228.596 461.813C230.2 463.086 232.489 460.826 230.868 459.54C155.377 399.633 79.2857 338.428 19.417 262.225C18.1408 260.598 15.881 262.887 17.1443 264.498Z" fill="#F1FFF0"/>
<path d="M41.466 340.505C58.2944 344.424 75.8075 346.401 93.0956 346.449C94.0536 346.452 95.0308 345.406 94.6451 344.414C86.7307 324.054 77.897 302.581 74.6889 280.884C74.3867 278.844 71.2894 279.712 71.5884 281.739C74.7965 303.436 83.6303 324.908 91.5446 345.269C92.0605 344.591 92.5781 343.913 93.094 343.234C76.0824 343.186 58.8763 341.261 42.3195 337.405C40.3071 336.937 39.4488 340.034 41.466 340.505Z" fill="#F1FFF0"/>
<path d="M90.0255 398.622C100.944 399.792 111.809 401.369 122.789 401.901C132.37 402.365 143.359 402.851 152.172 398.402C152.958 398.005 153.151 396.924 152.749 396.203C139.55 372.468 133.114 345.32 122.3 320.472C121.477 318.58 118.706 320.214 119.524 322.093C130.343 346.957 136.759 374.064 149.973 397.824C150.166 397.092 150.357 396.359 150.55 395.626C141.186 400.353 128.75 399.133 118.631 398.438C109.056 397.781 99.5632 396.429 90.0255 395.407C87.9698 395.187 87.9859 398.403 90.0255 398.622Z" fill="#F1FFF0"/>
<path d="M267.104 387.628C249.398 376.415 231.95 368.263 214.246 357.051C190.668 342.121 43.6778 257.975 54.8388 133.955C56.8158 111.992 69.2049 85.7854 90.5707 80.335C153.786 64.2074 153.66 144.13 156.989 161.386C164.611 200.894 185.255 236.945 210.75 268.074C236.245 299.202 266.604 325.927 296.646 352.693C303.202 358.534 310.332 365.786 309.469 374.524C309.154 377.713 307.763 380.681 306.394 383.578C298.52 400.231 279.333 395.374 267.104 387.628Z" fill="#CCFFBF"/>
<path d="M92.9475 100.772C91.0573 125.018 93.9408 147.065 102.381 169.791C109.249 188.284 117.673 206.203 127.48 223.319C150.262 263.072 180.386 298.404 215.29 328.021C237.783 347.106 262.193 363.761 287.85 378.29C289.653 379.31 291.275 376.534 289.472 375.514C210.015 330.522 143.015 262.839 108.707 177.295C104.692 167.284 100.597 156.945 98.2628 146.39C94.9695 131.5 94.9823 115.906 96.1621 100.772C96.3228 98.7097 93.1082 98.7193 92.9475 100.772Z" fill="#F1FFF0"/>
<path d="M64.0504 131.613C75.1696 142.666 86.5702 152.839 100.01 161.01C100.923 161.565 102.071 161.021 102.372 160.049C107.15 144.632 114.696 129.367 125.137 116.988C126.463 115.416 124.2 113.13 122.865 114.715C112.044 127.545 104.23 143.201 99.2727 159.196C100.06 158.876 100.846 158.556 101.634 158.234C88.4379 150.211 77.2318 140.183 66.3247 129.34C64.854 127.881 62.5813 130.152 64.0504 131.613Z" fill="#F1FFF0"/>
<path d="M71.9245 188.122C81.8962 192.968 91.7329 198.091 101.676 202.993C106.348 205.296 111.022 207.622 115.796 209.71C117.594 210.497 120.129 212.125 122.173 211.883C122.868 211.801 123.546 211.442 123.723 210.703C127.723 194.074 131.98 177.294 138.007 161.272C138.737 159.334 135.63 158.496 134.908 160.417C130.869 171.154 127.789 182.252 124.837 193.327C123.696 197.607 122.59 201.897 121.521 206.196C121.269 207.214 121.027 208.234 120.769 209.25C120.706 209.498 122.479 209.456 120.992 208.385C118.518 206.606 114.552 205.645 111.76 204.322C107.251 202.186 102.781 199.968 98.318 197.742C90.0548 193.622 81.8528 189.377 73.5479 185.343C71.6947 184.446 70.0617 187.217 71.9245 188.122Z" fill="#F1FFF0"/>
<path d="M94.4661 240.224C112.302 247.931 130.701 254.978 149.621 259.526C150.46 259.727 151.368 259.266 151.598 258.403C155.86 242.476 157.676 226.127 158.744 209.71C158.879 207.644 155.662 207.652 155.529 209.71C154.479 225.842 152.686 241.899 148.497 257.548C149.156 257.173 149.815 256.799 150.474 256.424C131.833 251.943 113.66 245.041 96.0863 237.447C94.2089 236.637 92.5711 239.405 94.4661 240.224Z" fill="#F1FFF0"/>
<path d="M86.1839 313.493C83.1702 296.587 82.426 277.798 92.2145 263.688C100.349 251.961 114.503 245.641 128.602 243.418C139.36 241.722 269.021 231.191 273.767 235.912C278.163 240.282 291.772 248.328 297.222 270.98C303.764 298.164 323.577 414.118 317.993 438.399C302.52 442.25 154.611 443.001 131.6 443.205C130.658 434.595 91.0958 341.042 86.1839 313.493Z" fill="#36894F"/>
<path d="M337.98 199.103C373.879 207.275 387.993 282.44 393.456 300.702C399.427 320.663 407.973 339.854 418.814 357.647C424.27 366.6 430.442 377.767 425.125 386.802C421.769 392.506 414.729 395.052 408.118 395.359C394.954 395.97 382.252 389.349 372.857 380.111C363.462 370.87 356.904 359.182 350.839 347.484C332.879 312.848 322.341 286.638 314.141 248.495C313.689 246.406 310.29 192.801 337.98 199.103Z" fill="#B2BE9F"/>
<path d="M416.065 403.199C420.653 407.877 440.219 410.263 441.83 409.145C440.131 398.953 430.112 404.741 428.875 396.883C431.921 394.753 435.535 395.397 438.522 395.397C441.126 395.396 443.559 397.709 444.662 400.509C446.328 404.742 445.71 406.059 446.361 410.561C447.002 415.002 451.51 418.248 451.514 415.416C451.518 410.217 451.526 402.187 451.531 396.987C452.814 401.611 453.722 416.223 459.952 414.844C461.471 407.851 458.237 401.692 458.206 394.536C459.974 400.608 459.952 414.844 466.18 412.825C466.434 406.3 464.017 399.705 464.271 393.179C465.669 398.937 467.879 411.409 471.324 409.399C472.363 403.119 470.65 396.474 469.295 390.254C468.471 386.472 468.675 382.809 465.926 380.083C464.237 378.408 440.388 373.784 430.495 374.366C424.254 374.732 416.319 373.776 412.389 376.899C397.095 389.044 410.924 397.959 416.065 403.199Z" fill="#FFBB8E"/>
<path d="M175.122 272.111C183.289 311.826 210.248 316.905 215.269 357.139C218.621 383.987 207.394 417.249 199.756 443.205C261.799 445.386 324.615 444.255 370.467 442.273C368.789 404.676 353.772 354.743 357.252 317.27C359.246 295.784 363.993 275.843 360.948 254.483C357.904 233.12 348.682 202.181 337.98 199.105C317.178 193.126 299.699 187.741 275.734 185.136C265.268 183.998 234.546 180.798 208.032 184.531C191.377 186.878 177.268 189.995 171.29 192.42C131.743 208.462 168.057 237.754 175.122 272.111Z" fill="#D4D9CD"/>
<path d="M277.708 229.076C281.629 228.787 298.441 198.738 297.16 195.022C292.648 184.692 284.298 195.117 281.601 187.46C279.447 181.341 290.07 153.485 284.102 146.343C280.539 142.079 244.945 128.883 238.629 140.924C235.65 146.599 224.479 172.057 224.479 178.679C224.479 182.535 266.732 229.886 277.708 229.076Z" fill="#EAA27A"/>
<path d="M309.608 376.901C311.891 379.58 315.991 388.729 318.54 396.46C319.384 399.021 320.594 407.165 320.594 407.165C314.139 410.28 311.838 394.592 309.608 390.177C308.954 395.028 309.891 413.11 308.191 412.956C301.964 411.411 302.637 397.823 303.097 391.31C302.533 395.636 301.334 399.549 300.061 403.722C298.764 407.976 297.23 411.979 295.2 414.054C291.206 413.393 293.882 400.888 294.604 395.306C292.323 404.905 286.462 414.846 286.462 414.846C282.43 414.846 282.787 409.042 284.078 405.749C285.373 402.439 288.566 398.411 286.677 395.398C287.072 398.292 281.193 402.462 278.38 403.246C275.566 404.029 267.687 401.298 264.877 400.499C251.459 396.68 220.384 398.042 224.536 383.099C227.379 372.862 240.449 364.395 249.871 365.828C258.149 367.087 269.701 376.903 279.034 376.903C295.736 376.901 302.92 374.345 309.608 376.901Z" fill="#FFBB8E"/>
<path d="M266.007 369.138C249.185 359.614 179.131 328.867 178.52 327.322C176.18 321.402 209.496 265.533 211.592 249.05C213.688 232.565 213.371 218.134 201.579 206.428C185.893 190.856 171.291 192.42 171.291 192.42C160.4 196.236 157.521 199.826 151.95 205.227C144.058 212.876 139.505 223.243 135.142 233.329C122.265 263.098 109.328 293.046 101.714 324.575C99.6324 333.197 97.993 342.476 101.169 350.757C103.303 356.326 107.452 360.908 112.046 364.711C130.597 380.067 155.87 383.759 179.751 386.866C204.515 390.089 230.205 397.277 254.968 400.499C260.062 401.161 271.342 372.158 266.007 369.138Z" fill="#B2BE9F"/>
<path d="M207.924 186.339C207.905 192.921 213.137 199.175 215.884 205.156C220.53 215.274 225.179 225.392 229.827 235.508C235.777 227.724 241.726 219.938 247.676 212.154C256.102 221.462 266.676 228.814 278.335 233.472C283.868 226.319 289.398 219.167 294.931 212.013C297.184 218.749 300.172 225.241 303.824 231.334C307.05 215.539 309.824 197.529 300.15 184.634C295.562 178.518 288.432 174.375 280.847 173.417C277.946 183.056 284.488 193.018 284.416 203.084C284.358 211.264 279.968 218.706 275.715 225.693C270.173 222.189 264.834 218.362 259.736 214.237C257.188 212.177 254.618 209.935 253.308 206.931C252.186 204.361 252.061 201.382 250.576 199.005C249.045 196.559 246.342 195.156 244.138 193.293C235.076 185.636 229.301 170.749 229.301 162.336C222.279 162.339 207.96 173.717 207.924 186.339Z" fill="#B2BE9F"/>
<path d="M278.32 241.054C287.238 282.882 295.564 325.397 293.066 368.376C292.945 370.443 296.162 370.436 296.28 368.376C298.794 325.123 290.393 282.289 281.421 240.198C280.99 238.176 277.89 239.032 278.32 241.054Z" fill="#B2BE9F"/>
<path d="M295.202 118.134C294.132 124.78 294.484 132.013 298.179 137.64C301.874 143.267 309.626 146.556 315.671 143.593C323.444 139.787 324.195 129.113 323.246 120.511C322.649 115.082 321.708 109.427 318.42 105.065C307.445 90.5124 296.969 107.153 295.202 118.134Z" fill="#4E9E54"/>
<path d="M243.113 147.003C249.822 160.7 262.881 171.618 277.975 173.801C283.956 174.666 290.419 174.076 295.405 170.66C298.74 168.375 301.168 165.011 303.327 161.592C312.95 146.353 318.529 128.586 319.349 110.583C319.995 96.3742 316.698 80.3816 304.899 72.44C295.933 66.4062 284.33 66.5139 273.528 66.8401C267.965 67.0089 262.19 67.2291 257.236 69.7686C252.086 72.4094 248.465 77.2297 245.053 81.9086C232.678 98.8832 233.911 128.218 243.113 147.003Z" fill="#FFBB8E"/>
<path d="M276.514 152.805C281.14 157.149 287.776 158.529 293.693 156.121C295.583 155.351 294.757 152.241 292.838 153.02C287.966 155.004 282.656 154.165 278.787 150.531C277.281 149.116 275.003 151.384 276.514 152.805Z" fill="#E28E60"/>
<path d="M269.374 89.2683C270.286 91.0283 270.316 93.1001 270.858 95.0048C272.027 99.105 275.81 102.329 280.044 102.831C284.277 103.332 288.71 101.08 290.803 97.3659C291.538 96.0624 292.037 94.5595 293.182 93.5952C295.752 91.4237 299.778 93.2673 302.007 95.7875C304.235 98.3094 305.661 102.257 308.948 102.982C318.421 105.068 320.594 98.4444 322.067 92.327C323.497 96.6281 333.449 95.0369 336.479 91.6648C339.509 88.2911 339.028 82.778 336.42 79.0716C333.809 75.3636 329.574 73.1536 325.325 71.5736C323.765 70.9933 322.134 70.4517 320.906 69.3314C316.489 65.3019 320.237 57.9019 318.902 52.0738C317.407 45.5594 308.699 42.3947 302.834 45.6028C298.457 47.9977 295.662 52.945 290.919 54.496C290.779 53.4031 275.527 47.477 275.35 51.5579C275.35 51.5579 268.839 47.0285 258.591 49.6082C253.607 50.8635 248.989 55.4074 248.954 60.5475C244.304 59.5687 243.376 59.657 238.821 61.0088C234.266 62.3605 230.139 66.1104 229.658 70.8374C229.486 72.5331 229.775 74.2738 229.38 75.9326C228.363 80.216 223.087 81.7156 221.816 85.504C219.964 91.0187 222.39 96.0527 223.161 101.889C224.425 111.441 222.448 119.772 234.686 119.018C242.798 118.518 249.253 122.506 251.992 115.855C253.292 112.695 260.857 72.8385 269.374 89.2683Z" fill="#3F301F"/>
<path d="M218.25 113.559C217.179 120.206 218.06 129.036 221.753 134.665C225.449 140.292 233.201 143.581 239.246 140.618C247.019 136.812 247.769 126.138 246.821 117.536C246.223 112.106 245.284 106.452 241.996 102.091C231.021 87.5373 220.016 102.578 218.25 113.559Z" fill="#4E9E54"/>
<path d="M236.094 102.13C236.323 88.4342 239.464 72.8932 251.212 64.3247C259.486 58.2893 275.632 52.405 290.917 54.4945C290.917 54.4945 286.732 50.6209 282.419 49.9185C269.919 47.8836 257.194 51.484 247.054 58.9451C233.62 68.8283 229.563 86.2949 229.298 102.132C229.226 106.503 236.021 106.505 236.094 102.13Z" fill="#4E9E54"/>
<path d="M232.463 128.993C235.165 145.927 249.546 160.874 266.872 162.454C268.931 162.642 268.918 159.425 266.872 159.239C250.902 157.784 238.023 143.555 235.564 128.139C235.239 126.101 232.14 126.966 232.463 128.993Z" fill="#4E9E54"/>
<path d="M279.851 159.621C279.851 163.794 276.467 167.177 272.295 167.177C268.121 167.177 264.739 163.794 264.739 159.621C264.739 155.449 268.122 152.065 272.295 152.065C276.467 152.065 279.851 155.449 279.851 159.621Z" fill="#4E9E54"/>
<path d="M295.635 134.776C296.028 137.873 297.515 140.847 299.822 143.15C300.518 143.844 301.342 144.616 301.249 145.551C301.088 147.155 298.647 147.446 296.911 147.152C293.381 146.554 289.958 145.439 286.812 143.86C286.534 143.72 286.254 143.576 286.039 143.365C285.679 143.016 285.531 142.528 285.452 142.054C284.986 139.271 286.438 136.565 287.343 133.872C288.362 130.839 288.047 115.832 293.222 116.949C299.044 118.203 295.196 131.326 295.635 134.776Z" fill="#E28E60"/>
<path d="M221.335 124.242C221.393 127.672 221.76 131.486 224.317 133.773C227.244 136.393 232.535 135.491 234.43 132.053C235.343 130.396 235.496 128.44 235.613 126.551C235.917 121.63 236.095 116.634 235.03 111.819C234.139 107.801 231.711 103.45 227.63 102.929C221.141 102.103 221.27 120.411 221.335 124.242Z" fill="#6FC578"/>
<path d="M281.72 120.722C281.72 123.412 280.389 125.592 278.747 125.592C277.104 125.592 275.773 123.411 275.773 120.722C275.773 118.031 277.104 115.85 278.747 115.85C280.389 115.85 281.72 118.033 281.72 120.722Z" fill="#3F301F"/>
<path d="M306.829 126.908C308.472 126.908 309.803 124.728 309.803 122.038C309.803 119.348 308.472 117.168 306.829 117.168C305.187 117.168 303.856 119.348 303.856 122.038C303.856 124.728 305.187 126.908 306.829 126.908Z" fill="#3F301F"/>
<path d="M270.844 110.904C273.304 108.39 276.739 107.669 280.031 108.853C281.981 109.556 282.821 106.45 280.886 105.753C276.564 104.197 271.771 105.362 268.572 108.631C267.123 110.112 269.394 112.386 270.844 110.904Z" fill="#3F301F"/>
<path d="M305.089 110.094C307.557 110.335 309.796 111.25 311.817 112.674C313.511 113.868 315.12 111.083 313.438 109.898C310.939 108.136 308.12 107.175 305.089 106.88C303.03 106.679 303.044 109.895 305.089 110.094Z" fill="#3F301F"/>
<path d="M698.707 458.976H59.5161C51.822 458.976 45.5857 452.74 45.5857 445.045V443.461C45.5857 435.768 51.822 429.53 59.5161 429.53H698.707C706.399 429.53 712.637 435.766 712.637 443.461V445.045C712.635 452.74 706.399 458.976 698.707 458.976Z" fill="#A5EFA6"/>
<path d="M679.154 458.976H79.0691V460.091C79.0691 470.91 87.8401 479.681 98.6589 479.681H659.564C670.383 479.681 679.154 470.91 679.154 460.091V458.976Z" fill="#CCFFBF"/>
<path d="M584.863 368.376H359.701C350.94 368.376 344.112 360.78 345.041 352.068L358.882 222.436C359.682 214.943 366.005 209.258 373.542 209.258H598.704C607.465 209.258 614.293 216.854 613.364 225.566L599.523 355.197C598.723 362.692 592.4 368.376 584.863 368.376Z" fill="#4BF69E"/>
<path d="M593.357 368.376H368.196C359.434 368.376 352.607 360.78 353.536 352.068L367.375 222.436C368.175 214.943 374.498 209.258 382.035 209.258H607.196C615.958 209.258 622.785 216.854 621.856 225.566L608.016 355.197C607.217 362.692 600.894 368.376 593.357 368.376Z" fill="#4E9E54"/>
<path d="M491.158 302.251H476.306C470.713 302.251 466.177 306.786 466.177 312.381V420.471H501.285V312.381C501.287 306.786 496.751 302.251 491.158 302.251Z" fill="#4BF69E"/>
<path d="M538.66 420.471H425.408V429.532H538.66V420.471Z" fill="#4E9E54"/>
<path d="M440.13 420.471H306.829V429.532H440.13V420.471Z" fill="#4BF69E"/>
<path d="M252.636 409.147H240.032C231.471 409.147 224.532 416.085 224.532 424.646C224.532 427.344 226.72 429.532 229.419 429.532H263.251C265.949 429.532 268.137 427.344 268.137 424.646C268.135 416.085 261.197 409.147 252.636 409.147Z" fill="#4BF69E"/>
</svg>
