<svg width="1304" height="592" viewBox="0 0 1304 592" fill="none" xmlns="http://www.w3.org/2000/svg">
<path d="M652 590C1012.09 590 1304 578.359 1304 564C1304 549.641 1012.09 538 652 538C291.91 538 0 549.641 0 564C0 578.359 291.91 590 652 590Z" fill="#C4D0DA"/>
<path d="M458.29 387.213V318.489C458.29 316.295 456.511 314.517 454.317 314.517H343.087V262.874H473.782C475.976 262.874 477.755 261.096 477.755 258.902V185.41C477.755 183.216 475.976 181.438 473.782 181.438H247.35C245.156 181.438 243.378 183.216 243.378 185.41V526.648C243.378 528.842 245.156 530.62 247.35 530.62H339.115C341.309 530.62 343.087 528.842 343.087 526.648V391.186H454.317C456.511 391.186 458.29 389.407 458.29 387.213Z" fill="#229E54"/>
<path d="M669.455 184.181C668.922 182.545 667.397 181.438 665.677 181.438H565.161C563.44 181.438 561.915 182.546 561.383 184.182L450.408 525.419C450.014 526.629 450.224 527.953 450.972 528.982C451.719 530.011 452.914 530.62 454.185 530.62H547.769C549.582 530.62 551.166 529.392 551.616 527.635L565.325 474.21H663.078L677.11 527.656C677.568 529.402 679.147 530.62 680.953 530.62H776.752C778.024 530.62 779.219 530.011 779.966 528.982C780.713 527.952 780.923 526.627 780.529 525.418L669.455 184.181ZM587.294 392.378L614.496 289.281L641.985 392.378H587.294Z" fill="#229E54"/>
<path d="M1037.97 493.052C1048.52 481.718 1057.29 468.434 1064.19 453.303C1076.03 427.354 1082.04 393.763 1082.04 353.466C1082.04 325.706 1078.61 300.648 1071.85 278.99C1065.04 257.184 1054.67 238.22 1041.03 222.612C1027.33 206.953 1010.5 195.039 991 187.209C971.61 179.427 949.078 175.479 924.024 175.479C899.557 175.479 877.43 179.499 858.268 187.428C839.013 195.396 822.245 207.513 808.425 223.438C794.648 239.312 784.177 258.583 777.304 280.718C770.479 302.702 767.02 328.118 767.02 356.267C767.02 396.635 774.035 430.791 787.871 457.78C801.787 484.924 820.243 505.072 842.731 517.669C865.124 530.218 893.702 536.578 927.663 536.578C943.446 536.578 958.104 534.938 971.551 531.684L1015.21 575.339L1006.8 584.248H1026.66C1028.24 584.248 1029.81 583.648 1031.01 582.449L1074.84 538.616C1077.24 536.217 1077.24 532.32 1074.84 529.92L1037.97 493.052ZM969.913 424.995C969.071 426.453 968.185 427.815 967.26 429.078C957.145 442.875 943.198 449.581 924.627 449.581C906.592 449.581 892.74 442.716 882.284 428.594C882.252 428.55 882.221 428.507 882.189 428.463C871.666 414.166 866.331 390.009 866.331 356.664C866.331 322.918 871.729 298.558 882.375 284.266C892.906 270.139 906.461 263.271 923.82 263.271C942.01 263.271 956.001 270.036 966.596 283.952C977.298 298.006 982.724 320.9 982.724 352.001C982.725 385.802 978.419 410.312 969.913 424.995Z" fill="#229E54"/>
<path d="M438.427 387.213V318.489C438.427 316.295 436.649 314.517 434.455 314.517H323.225V262.874H453.92C456.114 262.874 457.892 261.096 457.892 258.902V185.41C457.892 183.216 456.114 181.438 453.92 181.438H227.488C225.294 181.438 223.516 183.216 223.516 185.41V526.648C223.516 528.842 225.294 530.62 227.488 530.62H319.253C321.447 530.62 323.225 528.842 323.225 526.648V391.186H434.455C436.649 391.186 438.427 389.407 438.427 387.213Z" fill="#3ED77B"/>
<path d="M649.595 184.181C649.063 182.545 647.538 181.438 645.818 181.438H545.301C543.581 181.438 542.056 182.546 541.524 184.182L430.548 525.419C430.155 526.629 430.365 527.953 431.112 528.982C431.859 530.011 433.054 530.62 434.326 530.62H527.909C529.723 530.62 531.306 529.392 531.757 527.635L545.466 474.21H643.219L657.251 527.656C657.709 529.402 659.288 530.62 661.093 530.62H756.893C758.165 530.62 759.359 530.011 760.107 528.982C760.854 527.952 761.064 526.627 760.67 525.418L649.595 184.181ZM622.126 392.378H567.434L594.636 289.281L622.126 392.378Z" fill="#3ED77B"/>
<path d="M1018.11 493.052C1028.65 481.718 1037.43 468.434 1044.33 453.303C1056.17 427.354 1062.18 393.763 1062.18 353.466C1062.18 325.706 1058.75 300.648 1051.99 278.99C1045.18 257.184 1034.81 238.22 1021.16 222.612C1007.47 206.953 990.635 195.039 971.138 187.209C951.748 179.427 929.216 175.479 904.162 175.479C879.695 175.479 857.568 179.499 838.405 187.428C819.15 195.396 802.383 207.513 788.562 223.438C774.786 239.312 764.314 258.583 757.442 280.718C750.617 302.702 747.157 328.118 747.157 356.267C747.157 396.635 754.173 430.791 768.009 457.78C781.925 484.924 800.381 505.072 822.869 517.669C845.262 530.218 873.84 536.578 907.801 536.578C923.583 536.578 938.242 534.938 951.689 531.684L1002.45 582.449C1004.85 584.848 1008.75 584.848 1011.15 582.449L1054.98 538.616C1057.38 536.217 1057.38 532.32 1054.98 529.92L1018.11 493.052ZM862.514 284.266C873.045 270.139 886.599 263.271 903.959 263.271C922.148 263.271 936.14 270.036 946.734 283.952C957.436 298.006 962.862 320.9 962.862 352.001C962.862 385.803 958.556 410.313 950.052 424.995C949.209 426.453 948.323 427.816 947.398 429.079C937.284 442.875 923.337 449.581 904.765 449.581C886.73 449.581 872.878 442.716 862.422 428.595C862.391 428.551 862.359 428.507 862.327 428.463C851.804 414.167 846.469 390.01 846.469 356.664C846.469 322.918 851.867 298.558 862.514 284.266Z" fill="#3ED77B"/>
<path d="M234.072 288.641C233.244 288.641 232.431 288.356 231.779 287.808C230.75 286.943 230.366 285.634 230.779 284.392L233.825 275.225C226.421 274.247 220.705 268.237 220.705 260.992V225.558C220.705 217.633 227.544 211.187 235.95 211.187H292.13C300.537 211.187 307.375 217.634 307.375 225.558V260.992C307.375 268.917 300.537 275.363 292.13 275.363H266.489L235.492 288.353C235.031 288.547 234.549 288.641 234.072 288.641Z" fill="#D8FFDD"/>
<path d="M180.926 277.064C167.503 282.611 160.722 296.709 156.962 310.029C151.536 329.247 149.91 349.406 152.191 369.172C153.45 380.08 156.072 391.261 163.094 400.028C170.116 408.793 182.464 414.533 193.682 411.49C201.454 409.382 207.412 403.603 212.624 397.789C215.845 394.195 218.955 390.468 221.253 386.293C224.525 380.347 226.039 373.707 227.519 367.159C229.996 356.195 232.483 345.145 232.609 333.937C232.735 322.73 230.335 311.218 223.743 301.879C219.399 295.725 217.62 290.293 211.727 285.405C207.257 281.698 188.273 270.837 176.706 281.096" fill="#CA5E49"/>
<path d="M180.421 276.202C156.716 286.333 151.612 318.063 149.964 340.813C148.263 364.294 149.405 398.672 173.869 410.668C195.485 421.267 217.229 401.634 225.098 382.185C230.375 369.144 233.123 353.521 234.194 339.53C235.253 325.693 232.989 312.641 225.477 300.867C219.397 291.338 214.572 283.286 203.988 278.479C194.8 274.308 183.448 272.426 175.448 279.836C173.98 281.196 175.905 283.759 177.609 282.637C201.192 267.099 224.362 299.287 229.094 318.997C232.91 334.89 229.313 351.09 225.784 366.682C222.619 380.668 217.145 391.796 206.532 401.74C194.258 413.239 177.277 413.098 165.73 400.582C154.777 388.71 153.184 370.373 152.849 355.005C152.306 330.133 155.924 290.411 181.435 277.93C182.607 277.354 181.576 275.708 180.421 276.202Z" fill="#CA5E49"/>
<path d="M189.98 339.732C180.701 335.832 175.109 347.528 175.109 347.528C175.109 347.528 167.743 376.951 165.712 380.637C163.75 384.193 134.149 365.635 131.55 363.996C129.533 361.855 126.964 360.277 124.206 359.222C122.593 358.604 121.864 358.733 120.21 359.184C118.472 359.659 116.304 359.565 114.783 360.602C112.619 362.075 113.338 363.839 113.688 365.885C113.805 366.568 113.622 366.877 113.834 367.487C113.988 367.928 114.739 368.077 114.851 368.457C115.156 369.485 114.294 370.505 114.69 371.579C114.938 372.255 115.562 372.734 115.8 373.268C116.14 374.032 115.952 374.534 116.666 375.085C119.141 376.998 123.814 373.534 125.978 372.632C126.937 372.231 128.448 372.031 129.85 371.652C136.199 377.131 168.98 404.79 175.549 397.773C182.83 389.995 194.177 354.699 194.177 354.699C194.177 354.699 199.26 343.63 189.98 339.732Z" fill="#F6A676"/>
<path d="M181.643 558.377C172.647 551.81 174.403 573.509 176.83 577.819C177.383 578.801 178.677 578.567 179.463 577.997C182.068 576.106 182.31 572.453 182.529 569.452C182.647 567.844 182.735 566.228 182.945 564.623C183.173 562.882 183.76 561.37 183.403 559.687C183.212 558.79 182.543 558.194 181.643 558.377Z" fill="#F6A676"/>
<path d="M182.14 574.28L183.587 584.556L152.805 583.185C152.805 583.185 153.174 579.554 156.93 579.272C160.685 578.989 167.252 579.363 169.242 577.239C171.233 575.116 173.411 573.42 173.411 573.42C173.411 573.42 176.013 572.442 176.606 574.625C176.606 574.625 178.939 572.208 182.14 574.28Z" fill="#1E1029"/>
<path d="M169.649 398.49C169.649 398.49 158.868 431.38 163.394 461.856L175.239 568.675L182.758 566.494C190.98 549.134 205.956 499.252 189.104 485.708C189.104 485.708 203.434 435.656 193.467 401.151C183.5 366.645 169.649 398.49 169.649 398.49Z" fill="#1E1029"/>
<path d="M208.501 560.255C198.754 554.91 203.336 576.215 206.313 580.164C206.992 581.065 208.245 580.659 208.946 579.992C211.278 577.772 211.033 574.119 210.851 571.115C210.753 569.505 210.628 567.892 210.623 566.271C210.617 564.515 210.999 562.938 210.421 561.319C210.112 560.457 209.37 559.956 208.501 560.255Z" fill="#FFBD95"/>
<path d="M212.668 575.196L214.711 585.37L183.902 585.8C183.902 585.8 184.059 582.153 187.793 581.652C191.525 581.15 198.103 581.141 199.966 578.905C201.829 576.67 203.904 574.849 203.904 574.849C203.904 574.849 206.444 573.72 207.165 575.864C207.165 575.864 209.352 573.316 212.668 575.196Z" fill="#1E1029"/>
<path d="M171.7 400.208L200.991 569.635L210.681 568.152C216.525 549.853 224.744 498.424 206.241 487.239C206.241 487.239 240.944 423.286 201.3 399.929C179.177 386.896 171.7 400.208 171.7 400.208Z" fill="#322736"/>
<path d="M201.764 402.06L213.28 345.51C215.019 343.238 209.905 338.35 201.233 333.773C194.562 330.252 185.925 329.716 180.306 338.969C175.106 347.529 171.143 349.956 168.887 355.487C168.081 357.461 167.976 360.935 168.892 362.86L172.004 367.698L168.96 402.697C168.96 402.697 167.803 404.772 180.247 406.193C193.593 407.714 201.764 402.06 201.764 402.06Z" fill="#1E1029"/>
<path d="M184.81 326.459L184.608 332.638C184.448 337.53 184.976 342.434 189.315 341.633C192.826 340.984 199.923 337.109 201.234 333.772L202.459 327.743C203.507 322.588 200.555 317.78 195.924 317.092L194.901 316.94C189.804 316.187 184.998 320.72 184.81 326.459Z" fill="#F6A676"/>
<path d="M172.637 323.324C184.205 338.249 192.004 336.455 199.091 328.605C207.503 319.287 210.119 303.584 204.317 293.231C198.515 282.877 185.122 284.16 176.003 289.269C166.884 294.378 159.573 306.469 172.637 323.324Z" fill="#FFBD95"/>
<path d="M186.487 326.554C189.476 326.554 191.899 324.131 191.899 321.142C191.899 318.153 189.476 315.73 186.487 315.73C183.498 315.73 181.075 318.153 181.075 321.142C181.075 324.131 183.498 326.554 186.487 326.554Z" fill="#FF8763"/>
<path d="M204.601 310.808C204.607 310.943 204.639 311.07 204.7 311.188C205.167 312.273 206.122 312.829 207.305 312.537C209.362 312.031 210.429 307.965 212.504 308.148C211.981 308.03 211.456 307.914 210.933 307.796C209.946 307.343 210.806 306.407 210.121 307.521C209.836 307.985 209.524 308.387 209.156 308.791C208.792 309.192 208.426 309.541 207.996 309.865C207.707 310.077 207.409 310.274 207.103 310.457C206.501 310.736 206.476 310.797 207.032 310.635C207.561 310.753 208.091 310.873 208.62 310.991C208.659 311.017 208.699 311.044 208.738 311.07C209.035 311.531 209.331 311.991 209.628 312.452C209.333 313.669 209.454 313.885 209.989 313.098C210.197 312.868 210.405 312.638 210.615 312.408C210.823 312.179 211.031 311.949 211.241 311.719C211.68 311.213 211.789 311.1 211.565 311.376C211.054 311.537 210.544 311.7 210.033 311.862C210.132 311.859 210.233 311.854 210.332 311.851C209.831 311.739 209.33 311.626 208.827 311.514C208.912 311.562 208.996 311.609 209.081 311.657C208.701 311.312 208.319 310.968 207.939 310.623C207.873 310.41 207.808 310.196 207.743 309.983C207.855 309.484 207.966 308.984 208.078 308.485C208.035 308.583 207.991 308.682 207.948 308.78C208.291 308.401 208.634 308.023 208.977 307.642C209.325 307.647 209.224 307.644 208.674 307.635C205.816 307.58 204.962 311.814 207.473 313.014C210.182 314.307 213.992 312.863 213.763 309.426C213.576 306.602 210.419 304.789 207.988 306.461C206.88 307.223 205.908 308.44 205.025 309.452C204.098 310.514 203.351 311.708 203.408 313.178C203.466 314.646 204.371 316.021 205.689 316.651C207.131 317.341 208.553 316.903 209.884 316.203C213.832 314.129 219.386 307.926 215.522 303.455C213.251 300.828 209.895 301.788 207.685 303.91C205.74 305.779 205.04 307.745 204.621 310.309C205.205 309.94 205.788 309.572 206.372 309.203C206.291 309.182 206.209 309.162 206.128 309.144C205.076 308.889 204.427 309.889 204.601 310.808Z" fill="#FFBD95"/>
<path d="M174.449 324.8C174.844 325.94 174.045 326.663 173.941 327.731C173.803 329.153 174.964 330.788 176.586 330.158C178.106 329.568 178.884 327.939 178.757 326.342C178.642 324.909 177.723 323.773 176.569 323.015C175.461 322.288 174.046 323.644 174.449 324.8Z" fill="#FF8763"/>
<path d="M208.481 309.029C208.652 309.284 208.647 309.188 208.469 308.739C208.292 308.373 208.318 308.006 208.546 307.643C208.58 307.592 208.615 307.541 208.647 307.488C208.545 307.604 208.438 307.713 208.323 307.815C207.946 308.155 208.68 307.598 207.947 308.09C207.848 308.154 207.748 308.219 207.651 308.283C207.104 308.579 207.255 308.547 208.105 308.186C208.61 308.3 209.116 308.413 209.621 308.525C209.697 308.576 209.773 308.626 209.849 308.677C210.136 309.124 210.425 309.573 210.712 310.02C210.693 309.938 210.676 309.854 210.658 309.771C210.681 310.304 210.704 310.836 210.728 311.369C210.653 311.471 210.592 311.58 210.546 311.698C210.692 311.551 210.839 311.403 210.985 311.256C211.428 310.812 211.771 310.332 212.105 309.799C212.83 308.638 212.393 306.915 211.425 306.041C210.481 305.189 208.674 304.87 207.626 305.74C205.906 307.165 204.071 309.477 204.895 311.867C205.819 314.547 208.889 314.725 210.937 313.331C212.414 312.327 213.829 310.931 214.169 309.118C214.717 306.195 211.724 304.218 209.214 305.58C208.095 306.19 207.705 308.027 208.481 309.029Z" fill="#F6A676"/>
<path d="M165.493 299.134C165.707 299.065 165.602 298.732 165.388 298.8C165.174 298.868 165.279 299.202 165.493 299.134Z" fill="#CA5E49"/>
<path d="M131.739 374.779C132.385 374.103 132.596 373.365 132.287 372.861L120.987 354.428C120.352 353.393 117.978 353.823 116.651 355.214C116.005 355.89 115.794 356.628 116.103 357.132L127.403 375.565C128.038 376.601 130.414 376.171 131.739 374.779Z" fill="#1E1029"/>
<path d="M132.332 373.891C132.978 373.214 133.189 372.477 132.88 371.972L121.58 353.54C120.945 352.504 118.571 352.934 117.244 354.325C116.598 355.002 116.387 355.74 116.696 356.244L127.996 374.677C128.631 375.711 131.006 375.281 132.332 373.891Z" fill="#322736"/>
<path d="M121.937 355.269L130.01 368.378L126.38 370.45L117.79 356.602L121.937 355.269Z" fill="#8A8F89"/>
<path d="M130.032 373.005C131.414 373.005 131.415 370.858 130.032 370.858C128.65 370.858 128.649 373.005 130.032 373.005Z" fill="#1E1029"/>
<path d="M205.248 439.153C205.381 438.012 205.576 436.855 205.726 435.697C224.415 387.269 215.865 361.859 214.872 345.745C214.558 340.667 207.988 338.128 204.293 341.798C203.152 342.932 202.222 344.337 201.676 345.884C199.706 351.458 200.98 357.71 201.893 363.617C204.819 382.579 203.678 402.111 200.438 421.009C199.906 424.112 199.327 427.284 198.905 430.457C198.388 431.609 197.201 432.339 196.129 432.975C194.877 433.717 191.296 435.587 190.737 437.015C190.575 437.429 190.919 438.01 191.347 438.089C192.462 438.297 194.927 437.507 196.001 438.005C196.31 438.15 195.387 439.072 194.947 440.954C193.502 444.925 193.171 445.957 192.456 450.042C192.226 451.355 193.996 451.857 194.455 450.593C195.239 448.441 195.869 446.189 196.449 443.916C196.489 443.978 196.521 444.041 196.563 444.102C195.975 447.747 195.368 451.411 195.214 455.058C195.171 456.078 196.691 456.247 196.966 455.295C197.821 452.33 198.083 449.734 198.681 446.195C199.92 446.959 198.597 446.134 198.681 446.195C198.985 446.417 199.328 446.603 199.682 446.771C199.448 450.205 199.431 453.651 199.911 457.039C200.033 457.902 201.277 457.604 201.34 456.845C201.432 455.732 201.597 452.965 201.778 447.277C202.371 447.264 202.618 447.266 202.915 447.07C203.228 449.045 203.262 452.933 203.646 454.839C203.804 455.628 204.771 455.471 204.833 454.681C205.024 452.223 204.913 442.015 205.248 439.153Z" fill="#FFBD95"/>
<path d="M166.09 296.505C167.11 297.4 168.131 298.296 169.182 299.155C173.554 302.728 178.444 305.667 183.653 307.849C190.655 310.781 198.374 312.438 204.354 317.114C207.557 319.618 210.082 322.864 212.705 325.972C213.215 326.578 213.923 327.244 214.684 327.019C214.946 326.941 215.167 326.764 215.372 326.581C219.225 323.15 219.635 317.373 219.771 312.214C219.872 308.407 219.953 304.481 218.559 300.938C217.539 298.344 215.775 296.101 213.782 294.151C207.552 288.058 198.804 284.62 190.093 284.847C181.382 285.074 172.823 288.958 166.917 295.368" fill="#CA5E49"/>
<path d="M165.473 297.123C177.031 310.073 196.274 309.935 207.662 322.405C209.736 324.676 212.093 329.646 215.797 328.121C220.246 326.291 221.01 318.354 221.297 314.458C222.28 301.105 217.064 291.357 204.422 285.931C191.258 280.281 175.336 283.413 165.888 294.342C164.661 295.761 166.529 297.64 167.946 296.401C177.93 287.662 190.611 283.774 203.271 289.233C209.425 291.886 215.891 296.694 217.638 303.548C218.762 307.961 218.962 316.42 217.172 320.699C214.171 327.871 213.249 324.108 210.63 321.158C209.005 319.329 207.348 317.567 205.426 316.043C202.576 313.781 199.314 312.216 195.967 310.834C190.665 308.647 185.1 307.214 179.962 304.615C175.095 302.153 171.023 298.775 166.53 295.752C165.672 295.173 164.841 296.415 165.473 297.123Z" fill="#CA5E49"/>
<path d="M247.112 236.092C247.112 234.375 247.609 232.633 248.601 230.87C249.595 229.106 251.043 227.645 252.948 226.489C254.853 225.331 257.075 224.751 259.614 224.751C261.974 224.751 264.058 225.236 265.865 226.203C267.672 227.172 269.067 228.487 270.053 230.151C271.038 231.815 271.531 233.624 271.531 235.577C271.531 237.115 271.25 238.463 270.688 239.62C270.126 240.778 269.459 241.778 268.686 242.619C267.912 243.46 266.525 244.875 264.522 246.865C263.969 247.425 263.525 247.919 263.191 248.344C262.858 248.77 262.609 249.158 262.446 249.51C262.283 249.863 262.157 250.215 262.067 250.569C261.977 250.922 261.844 251.541 261.664 252.428C261.355 254.309 260.386 255.248 258.757 255.248C257.911 255.248 257.199 254.941 256.621 254.326C256.044 253.711 255.755 252.799 255.755 251.586C255.755 250.066 255.966 248.751 256.39 247.638C256.814 246.527 257.374 245.548 258.074 244.709C258.775 243.867 259.718 242.867 260.908 241.709C261.949 240.697 262.702 239.932 263.166 239.416C263.631 238.901 264.02 238.326 264.339 237.693C264.657 237.06 264.815 236.373 264.815 235.631C264.815 234.184 264.331 232.963 263.362 231.969C262.393 230.975 261.144 230.477 259.614 230.477C257.823 230.477 256.505 230.978 255.659 231.983C254.813 232.986 254.095 234.465 253.51 236.418C252.957 238.463 251.906 239.484 250.36 239.484C249.449 239.484 248.679 239.129 248.052 238.413C247.424 237.698 247.112 236.924 247.112 236.092ZM259.028 265.83C258.034 265.83 257.168 265.473 256.427 264.759C255.685 264.045 255.316 263.045 255.316 261.761C255.316 260.621 255.673 259.664 256.39 258.884C257.106 258.108 257.986 257.718 259.028 257.718C260.054 257.718 260.915 258.108 261.616 258.884C262.316 259.662 262.665 260.621 262.665 261.761C262.665 263.028 262.299 264.023 261.566 264.746C260.835 265.468 259.989 265.83 259.028 265.83Z" fill="#413847"/>
<path d="M653.492 77.501C652.663 77.501 651.851 77.2154 651.199 76.6673C650.17 75.8026 649.787 74.4939 650.2 73.2519L653.246 64.0845C645.842 63.1064 640.125 57.0968 640.125 49.8514V14.4192C640.125 6.49375 646.964 0.0478516 655.371 0.0478516H711.55C719.957 0.0478516 726.796 6.4953 726.796 14.4192V49.8529C726.796 57.7783 719.957 64.2242 711.55 64.2242H685.91L654.913 77.2138C654.45 77.4063 653.969 77.501 653.492 77.501Z" fill="#D8FFDD"/>
<path d="M590.434 80.6033C599.696 77.9346 603.705 89.6868 603.705 89.6868C603.705 89.6868 607.413 118.499 608.932 122.23C610.399 125.833 640.635 111.498 643.291 110.229C645.449 108.419 648.07 107.207 650.811 106.513C652.415 106.106 653.095 106.311 654.617 106.926C656.217 107.573 658.288 107.725 659.62 108.882C661.514 110.526 660.632 112.122 660.07 114.03C659.883 114.666 660.022 114.98 659.752 115.537C659.557 115.939 658.825 115.997 658.676 116.346C658.271 117.29 658.977 118.356 658.481 119.333C658.169 119.948 657.521 120.334 657.236 120.816C656.826 121.503 656.948 122.002 656.208 122.446C653.639 123.987 649.583 120.17 647.626 119.069C646.758 118.582 645.345 118.221 644.054 117.703C637.4 122.202 603.121 144.837 597.659 137.426C591.606 129.211 584.769 94.3675 584.769 94.3675C584.769 94.3675 581.17 83.272 590.434 80.6033Z" fill="#F6A676"/>
<path d="M644.66 128.326L639.151 123.305C638.17 122.411 638.1 120.891 638.995 119.91L666.458 89.7843C667.352 88.8031 668.872 88.7332 669.853 89.6274L675.361 94.6482C676.343 95.5424 676.412 97.0623 675.518 98.0434L648.055 128.169C647.161 129.15 645.641 129.222 644.66 128.326Z" fill="#4C649F"/>
<path d="M677.115 99.0099L672.5 94.8022L644.541 125.47L649.157 129.678L677.115 99.0099Z" fill="white"/>
<path d="M672.873 95.1449L668.257 90.9373L640.299 121.605L644.915 125.813L672.873 95.1449Z" fill="#EEEDD7"/>
<path d="M647.089 130.54L647.01 130.468C646.505 130.009 646.469 129.228 646.929 128.725L675.968 96.8712C676.428 96.3667 677.208 96.331 677.711 96.7905L677.791 96.8619C678.295 97.3215 678.331 98.1024 677.871 98.6054L648.832 130.459C648.373 130.964 647.592 130.999 647.089 130.54Z" fill="#6A7AB4"/>
<path d="M689.486 176.994C689.486 176.994 693.726 179.711 692.753 185.989C692.341 188.645 702.485 187.77 706.896 188.021C713.554 188.4 715.185 187.832 715.244 187.771C715.244 187.771 716.36 185.542 712.486 185.175C708.254 184.775 698.803 180.614 691.248 173.938L689.486 176.994Z" fill="#FFBD95"/>
<path d="M579.071 152.392C579.071 152.392 569.242 178.334 599.75 182.123C630.14 185.899 662.13 143.79 662.13 143.79C662.13 143.79 652.328 159.316 691.845 179.754L698.148 177.643L663.976 125.256L603.709 144.23L579.071 152.392Z" fill="#2F9738"/>
<path d="M691.874 183.614C691.874 183.614 691.321 187.027 694.202 187.763C697.084 188.499 716.244 188.601 716.244 188.601C716.244 188.601 720.633 187.125 711.579 184.364C711.579 184.364 709.111 185.831 703.188 184.756C697.265 183.678 693.165 183.237 691.874 183.614Z" fill="#1E1029"/>
<path d="M592.883 93.3748C591.095 94.2442 589.168 93.0022 589.358 91.0927C589.696 87.6695 589.853 84.4822 589.735 81.2267L589.721 67.523C589.58 63.6262 592.043 67.1162 595.63 66.77C598.95 66.4502 602.001 68.7945 602.819 72.2984L603.449 84.8222C603.094 92.5737 597.342 91.2076 592.883 93.3748Z" fill="#F6A676"/>
<path d="M697.274 191.96C697.274 191.96 702.703 195.658 697.639 199.491C695.495 201.114 703.393 207.541 706.387 210.789C710.907 215.692 712.475 216.418 712.559 216.415C712.559 216.415 714.911 215.591 712.383 212.632C709.621 209.401 707.491 197.947 700.837 188.3L697.274 191.96Z" fill="#FFBD95"/>
<path d="M578.979 154.774C578.979 154.774 569.15 180.716 599.658 184.506C630.048 188.281 665.767 148.507 665.767 148.507C665.767 148.507 652.101 179.651 698.984 194.918L702.778 190.371L667.809 128.354L603.615 146.613L578.979 154.774Z" fill="#42B04B"/>
<path d="M698.657 197.176C698.657 197.176 695.886 199.244 697.444 201.776C699.003 204.308 712.698 217.711 712.698 217.711C712.698 217.711 716.878 219.702 712.292 211.422C712.292 211.422 709.498 210.759 705.992 205.865C702.487 200.972 699.848 197.803 698.657 197.176Z" fill="#1E1029"/>
<path d="M578.866 153.181L581.373 95.002C581.373 95.002 582.74 87.4834 584.95 82.7002C587.981 76.1425 600.708 74.9347 605.595 84.0772C608.807 90.0853 611.099 95.3808 614.972 100.61C616.399 102.536 616.244 105.193 614.609 106.947L612.37 109.348L614.101 140.959C614.101 140.959 614.284 147.364 599.461 152.479C585.765 157.204 578.866 153.181 578.866 153.181Z" fill="white"/>
<path d="M626.309 66.9227C614.414 83.9177 605.124 82.3108 596.015 73.9973C585.205 64.1298 580.469 46.95 586.126 35.2661C591.783 23.5821 607.544 24.3599 618.73 29.5561C629.915 34.7538 639.741 47.7294 626.309 66.9227Z" fill="#FFBD95"/>
<path d="M618.94 67.8767C620.193 64.3212 618.094 60.3412 614.253 58.9872C610.411 57.6331 606.281 59.4178 605.027 62.9733C603.774 66.5288 605.873 70.5088 609.714 71.8629C613.556 73.2169 617.686 71.4323 618.94 67.8767Z" fill="#FF8763"/>
<path d="M627.658 60.5284C626.918 61.9459 626.764 63.5511 627.275 65.0803C627.773 66.5738 629.136 68.3002 630.76 68.6013C632.193 68.8668 633.213 67.2771 632.188 66.1469C631.504 65.3908 630.741 64.9204 630.206 64.0215C629.72 63.2049 629.454 62.3216 629.653 61.3699C629.894 60.2164 628.26 59.3749 627.658 60.5284Z" fill="#FF8763"/>
<path d="M594.705 79.9676C604.237 78.5331 606.674 90.7076 606.674 90.7076C606.674 90.7076 606.584 119.758 607.603 123.656C608.587 127.419 640.436 117.16 643.237 116.251C645.613 114.738 648.369 113.878 651.178 113.549C652.82 113.357 653.467 113.647 654.896 114.456C656.397 115.307 658.432 115.729 659.601 117.05C661.264 118.929 660.182 120.396 659.375 122.212C659.106 122.819 659.202 123.148 658.861 123.664C658.614 124.036 657.881 123.999 657.689 124.323C657.164 125.207 657.724 126.356 657.103 127.259C656.714 127.827 656.021 128.127 655.675 128.566C655.18 129.195 655.236 129.704 654.444 130.049C651.696 131.241 648.174 126.927 646.377 125.579C645.581 124.982 644.227 124.44 643.013 123.758C635.828 127.349 598.884 145.308 594.439 137.246C589.512 128.312 587.288 92.8734 587.288 92.8734C587.288 92.8734 585.172 81.4036 594.705 79.9676Z" fill="#FFBD95"/>
<path d="M632.485 38.9889C627.955 46.6286 618.968 50.2195 610.556 53.0761C602.145 55.9326 593.099 58.9677 587.814 66.106C581.469 59.907 579.122 50.6092 578.883 41.7414C578.808 38.9827 578.917 36.1789 579.749 33.549C582.506 24.8349 592.748 20.2815 601.849 21.1245C610.949 21.9675 619.097 26.9292 626.687 32.0198C629.216 33.7167 632.04 36.1075 631.597 39.1208" fill="#413847"/>
<path d="M631.869 38.371C620.127 53.1009 598.632 50.7784 586.656 64.9463C587.429 64.9463 588.202 64.9463 588.975 64.9463C579.617 54.1798 575.211 30.5558 591.84 24.3086C598.79 21.6973 606.141 23.1784 612.73 26.1235C617.376 28.1991 629.081 33.3984 629.708 39.1208C629.97 41.5085 633.736 41.5535 633.493 39.1208C632.637 30.6319 621.551 25.844 614.684 22.781C606.431 19.1001 597.106 17.6128 588.635 21.5405C570.979 29.7299 575.087 55.5181 586.658 67.2657C587.229 67.8448 588.426 67.9581 588.977 67.2657C600.338 53.0233 624.117 55.9093 633.241 39.4282C633.699 38.5992 632.508 37.5668 631.869 38.371Z" fill="#413847"/>
<path d="M603.076 57.9418C602.917 57.8906 602.761 57.8394 602.602 57.7881C602.879 58.1514 603.155 58.5147 603.431 58.878C603.354 57.7276 604.09 56.4685 604.08 55.2483C604.068 53.848 603.787 52.4181 603.285 51.114C602.374 48.7403 600.212 46.8509 597.537 47.7607C591.918 49.6702 594.365 58.6389 596.99 61.9907C598.408 63.8009 600.96 64.1502 602.425 62.1211C603.231 61.0049 603.107 59.6635 602.851 58.3843C602.564 56.9452 602.376 55.0698 601.551 53.8231C600.314 51.9524 597.352 52.238 596.337 54.205C595.172 56.4608 597.062 58.701 599.261 59.1342C601.424 59.5595 603.099 56.4484 600.859 55.343C599.899 54.6646 599.126 55.1614 598.539 56.8334C598.203 56.3956 597.866 55.9562 597.527 55.5184C597.948 56.5322 597.914 57.7462 598.362 58.7243C598.425 59.0068 598.487 59.2878 598.549 59.5704C600.229 59.5471 600.778 59.1543 600.196 58.3905C600.17 57.9481 599.617 57.2386 599.455 56.793C599.084 55.7715 598.862 54.6987 598.836 53.612C598.83 53.3713 598.727 52.6168 598.889 52.415C599.066 52.1915 599.508 53.4909 599.567 53.6663C600.281 55.7886 599.362 61.3433 603.299 59.6713C604.108 59.3298 603.768 58.1669 603.076 57.9418Z" fill="#FFBD95"/>
<path d="M600.885 54.9088C601.608 54.277 601.687 53.2461 601.181 52.4559C600.585 51.5275 599.304 51.0944 598.246 51.3862C595.686 52.0895 595.979 55.224 596.732 57.1304C597.122 58.1162 597.573 59.1409 598.438 59.7976C599.47 60.5816 600.865 60.6375 601.922 59.869C603.634 58.6254 603.314 55.862 602.675 54.1202C602.29 53.0707 601.366 52.3317 600.202 52.5056C599.137 52.6655 598.207 53.5783 598.247 54.7194C598.274 55.4258 598.418 56.1011 598.582 56.7858C598.609 56.8929 598.634 57 598.66 57.1056C598.705 57.3307 598.713 57.3183 598.682 57.073C598.683 57.1428 598.686 57.2142 598.688 57.2841C598.71 56.7485 599.026 56.3495 599.64 56.084C600.032 56.084 600.425 56.084 600.82 56.084C600.865 56.0918 601.163 56.3868 601.195 56.3666C601.191 56.3697 600.889 55.8092 600.866 55.7596C600.722 55.4615 600.643 54.7536 600.453 54.5517C600.303 54.3918 600.688 54.3033 600.3 54.738C600.262 54.9554 600.141 55.0905 599.935 55.1463C599.674 55.2566 599.63 55.2923 599.801 55.2519C599.919 55.2286 599.922 55.2302 599.814 55.2535C599.655 55.2861 599.708 55.2814 599.972 55.2395C600.237 55.1852 600.449 55.1075 600.7 55.0004C600.425 55.0749 600.152 55.1494 599.877 55.2224C599.911 55.2209 599.946 55.2178 599.98 55.2162C599.728 55.1479 599.478 55.0811 599.227 55.0128C599.287 55.0423 599.348 55.0718 599.408 55.0998C599.93 55.3513 600.449 55.2892 600.885 54.9088Z" fill="#F6A676"/>
<path d="M586.85 29.7108C583.195 27.8478 579.275 26.3559 575.184 26.0687C571.094 25.7815 566.793 26.8061 563.69 29.4857C558.747 33.7535 557.862 40.9461 557.211 47.4432C556.562 53.9403 555.412 61.1671 550.216 65.1228C548.356 66.5387 546.131 67.3879 544.156 68.6377C542.18 69.8874 540.358 71.738 540.091 74.0605C539.719 77.2788 542.592 80.1477 545.731 80.9442C548.871 81.7421 552.173 81.0016 555.328 80.2626C552.277 82.9826 553.068 88.7609 556.736 90.5618C561.111 92.7088 566.121 89.298 569.508 85.7941C572.891 82.2964 576.032 78.3453 577.359 73.663C579.145 67.3646 577.435 60.6874 576.392 54.2244C575.349 47.7615 575.195 40.471 579.371 35.4301C580.568 33.9848 582.102 32.7552 582.838 31.0289C583.574 29.3025 585.393 29.7636 583.574 29.3025" fill="#413847"/>
<path d="M587.31 28.9249C579.686 24.9894 569.879 22.0909 562.52 28.3148C555.096 34.593 556.587 45.0955 554.606 53.5767C553.67 57.5852 552.502 60.3098 549.554 63.1011C547.115 65.4112 543.934 66.498 541.549 68.8236C539.534 70.7906 538.289 73.0432 538.778 75.9324C540.116 83.8485 550.103 82.9092 555.716 81.6641C555.244 80.8537 554.772 80.0418 554.3 79.2314C551.552 82.636 550.996 87.6784 554.596 90.8455C560.173 95.7513 567.504 90.1733 571.455 86.0111C577.891 79.2283 580.527 71.9254 579.422 62.6044C578.829 57.6054 577.351 52.6623 577.402 47.5996C577.46 41.9797 580.133 34.1862 585.037 30.7335C585.933 30.1032 585.918 28.5709 584.716 28.2728C584.449 28.2061 584.182 28.1409 583.915 28.0741C582.577 27.7419 581.566 29.7927 582.934 30.4013C583.182 30.5115 583.431 30.6217 583.679 30.7335C583.679 29.9588 583.679 29.1842 583.679 28.4079C580.92 29.6996 578.368 33.8105 576.789 36.4001C574.541 40.0903 574.038 44.4792 574.192 48.7128C574.429 55.2425 576.78 61.6325 576.477 68.184C576.207 74.0523 573.841 78.5638 570.059 82.889C568.979 84.1372 567.823 85.3109 566.592 86.4116C556.279 89.9668 552.868 88.2591 556.358 81.29C557.256 80.1784 556.441 78.525 554.943 78.8572C552.07 79.6568 549.13 79.8834 546.118 79.5388C542.341 73.8567 542.621 70.2751 546.958 68.7925C548.807 67.2292 551.212 66.6796 552.985 64.8679C555.731 62.0641 557.083 58.245 557.925 54.4926C559.055 49.4455 558.822 44.1361 560.233 39.148C563.914 26.1273 575.789 25.7842 586.393 30.496C587.437 30.9602 588.369 29.4714 587.31 28.9249Z" fill="#413847"/>
<path d="M672.652 24.2237C672.652 22.5066 673.147 20.7632 674.141 19.0011C675.134 17.2391 676.583 15.7766 678.488 14.62C680.394 13.4619 682.614 12.8828 685.155 12.8828C687.515 12.8828 689.599 13.3687 691.406 14.3359C693.213 15.3031 694.609 16.6196 695.593 18.2839C696.579 19.9466 697.071 21.7552 697.071 23.7098C697.071 25.2467 696.788 26.5943 696.228 27.7524C695.666 28.9106 694.998 29.9104 694.225 30.7518C693.452 31.5933 692.064 33.0076 690.061 34.9979C689.509 35.5583 689.063 36.052 688.731 36.4758C688.397 36.9012 688.149 37.2893 687.987 37.6433C687.824 37.9957 687.697 38.3481 687.608 38.7021C687.518 39.0545 687.385 39.6739 687.205 40.5604C686.896 42.442 685.927 43.3812 684.3 43.3812C683.452 43.3812 682.74 43.0739 682.162 42.4575C681.585 41.8427 681.296 40.9299 681.296 39.7174C681.296 38.1975 681.507 36.8826 681.929 35.7694C682.353 34.6563 682.915 33.6798 683.615 32.8384C684.314 31.9969 685.26 30.9971 686.447 29.839C687.489 28.8268 688.242 28.0614 688.706 27.546C689.17 27.0305 689.561 26.4577 689.878 25.8243C690.196 25.1909 690.355 24.5031 690.355 23.7626C690.355 22.3141 689.87 21.0939 688.902 20.1003C687.933 19.1067 686.683 18.6068 685.154 18.6068C683.362 18.6068 682.043 19.1082 681.197 20.1143C680.351 21.1172 679.633 22.5967 679.048 24.5497C678.495 26.5927 677.444 27.6158 675.898 27.6158C674.987 27.6158 674.217 27.2603 673.591 26.5446C672.964 25.8289 672.652 25.0558 672.652 24.2237ZM684.569 53.9598C683.575 53.9598 682.709 53.6043 681.968 52.8886C681.226 52.1745 680.857 51.1747 680.857 49.8908C680.857 48.7513 681.214 47.7918 681.929 47.014C682.647 46.2362 683.525 45.8466 684.567 45.8466C685.592 45.8466 686.455 46.2362 687.155 47.014C687.855 47.7918 688.206 48.7497 688.206 49.8908C688.206 51.1561 687.84 52.1512 687.107 52.8762C686.376 53.5981 685.528 53.9598 684.569 53.9598Z" fill="#413847"/>
<path d="M793.903 497.321C796.539 508.775 798.731 520.332 800.473 531.957C801.008 535.526 801.501 539.168 800.908 542.729C800.314 546.291 798.469 549.815 795.323 551.585C794.406 552.102 793.367 552.462 792.316 552.409C791.315 552.358 790.363 551.934 789.529 551.375C784.807 548.202 784.214 541.612 784.088 535.923C783.838 524.558 783.587 513.192 783.337 501.825C783.307 500.477 783.33 498.979 784.249 497.992C785.468 496.681 787.747 496.99 789.099 498.161C790.452 499.333 791.11 501.094 791.715 502.778" fill="#C39769"/>
<path d="M755.066 459.639L780.466 466.845L789.036 551.905L736.483 551.394L732.374 462.985L749.015 457.96L755.066 459.639Z" fill="#F4DB5E"/>
<path d="M765.815 455.189L764.728 462.176C763.868 467.708 759.321 471.425 754.33 470.676C749.536 469.958 745.875 465.339 745.802 459.919L745.706 452.885C745.623 446.868 749.961 442.091 755.312 442.302L756.494 442.348C762.384 442.583 766.824 448.699 765.815 455.189Z" fill="#B38553"/>
<path d="M775.767 447.043C771.204 460.457 767.801 471.416 755.122 467.708C742.441 464.001 725.285 447.029 729.848 433.617C734.411 420.204 748.391 412.337 761.07 416.045C773.75 419.752 780.331 433.63 775.767 447.043Z" fill="#C39769"/>
<path d="M763.299 453.453C763.436 454.646 762.881 455.771 763.15 456.973C763.406 458.123 763.987 459.26 764.296 460.415C764.913 462.734 762.417 464.505 761.082 462.271C760.076 460.589 759.952 458.724 760.276 456.892C760.532 455.441 760.716 453.41 761.9 452.638C762.442 452.286 763.204 452.627 763.299 453.453Z" fill="#E3A47D"/>
<path d="M732.051 424.247C726.745 426.071 724.441 432.739 725.623 438.225C726.804 443.712 730.533 448.245 734.175 452.514C735.69 454.289 737.409 456.175 739.716 456.534C739.589 449.381 740.022 442.22 741.011 435.136C742.316 435.081 743.566 435.612 744.782 436.094C751.293 438.666 758.454 440.04 765.333 438.748C772.214 437.457 778.747 433.201 781.65 426.831C782.69 424.549 783.249 421.932 782.557 419.521C781.864 417.11 779.681 415.028 777.173 415.033C774.496 415.039 772.226 417.26 769.551 417.358C766.127 417.484 763.688 414.273 761.07 412.06C758.239 409.666 754.485 408.22 750.804 408.669C747.123 409.118 743.641 411.667 742.591 415.224C737.425 413.269 731.031 418.113 731.516 423.616" fill="#282A3E"/>
<path d="M731.902 423.709C715.5 428.777 729.099 453.604 739.453 457.488C740.06 457.716 740.712 457.131 740.704 456.535C740.641 451.187 740.138 444.93 741.42 439.701C742.188 436.57 741.934 436.929 744.522 437.033C746.596 437.117 749.963 438.907 752.068 439.355C758.573 440.743 765.494 440.608 771.613 437.789C778.316 434.701 790.703 421.096 780.337 414.896C778.841 414.002 777.562 413.881 775.89 414.078C774.207 414.276 772.786 415.582 771.167 415.764C766.222 416.319 764.94 413.478 761.998 411.136C758.106 408.037 753.015 406.194 748.117 407.949C745.453 408.903 744.498 411.311 742.313 412.528C740.513 413.53 739.003 413.26 736.952 413.986C732.672 415.503 730.366 419.271 730.183 423.616C730.11 425.335 732.768 425.327 732.852 423.616C733.762 417.979 736.887 415.624 742.226 416.551C742.767 416.675 743.53 416.481 743.781 415.917C747.546 407.497 756.175 409.832 761.708 414.394C763.372 415.767 764.817 417.493 766.958 418.178C767.905 418.481 768.903 418.625 769.888 418.574C774.902 418.318 772.018 415.385 777.711 420.685C781.924 422.421 782.604 424.905 779.749 428.135C778.698 429.854 777.414 431.365 775.899 432.669C772.844 435.33 769.02 437.017 765.067 437.776C756.243 439.472 749.529 435.387 741.269 434.201C740.591 434.103 740.131 434.454 740.044 435.134C739.531 439.192 739.119 443.25 738.913 447.338C738.872 448.127 739.234 453.085 738.723 453.467C736.853 454.861 735.032 451.966 734.114 450.873C727.764 443.305 721.553 431.778 732.333 424.728C732.841 424.396 732.532 423.514 731.902 423.709Z" fill="#282A3E"/>
<path d="M738.138 456.592L736.886 447.226C736.886 447.226 732.084 444.031 729.93 447.776C727.777 451.519 733.122 456.471 738.138 456.592Z" fill="#C39769"/>
<path d="M740.343 434.637C747.094 441.733 759.129 447.246 769.059 444.349C778.631 441.556 781.791 430.354 779.793 421.512C778.72 421.964 777.647 422.416 776.576 422.869C779.991 430.425 773.441 437.396 766.055 437.75C761.003 437.992 756.42 435.719 752.377 432.92C750.744 431.79 748.704 434.395 750.238 435.693C753.342 438.318 756.388 440.007 760.286 441.188C762.476 441.851 763.366 438.501 761.225 437.782C759.052 437.053 757.192 436.742 754.927 436.665C752.817 436.593 752.688 439.47 754.456 440.136C758.39 441.617 761.953 442.106 766.137 441.747C767.763 441.608 768.342 439.957 767.388 438.728C765.198 435.908 761.571 436.463 758.365 435.553C756.08 434.904 754.416 433.726 752.277 433.039C749.732 432.224 747 432.387 744.513 431.602C743.665 431.335 742.833 432.052 742.817 432.894C742.71 438.836 752.235 443.846 757.158 444.843C764.594 446.347 770.402 441.426 773.879 435.336C774.943 433.474 772.322 432.114 771.094 433.707C767.572 438.276 763.487 442.505 757.018 441.055C753.835 440.342 746.087 436.106 745.449 432.538C744.899 433.088 744.351 433.636 743.802 434.185C747.509 435.643 751.32 436.762 755.059 438.17C757.685 439.159 763.135 438.972 764.889 441.229C765.306 440.223 765.723 439.215 766.14 438.209C762.285 438.54 758.985 438.076 755.399 436.727C755.242 437.883 755.085 439.041 754.928 440.198C756.799 440.134 758.586 440.463 760.287 441.187C760.601 440.052 760.913 438.916 761.227 437.781C757.98 436.798 755.36 435.415 752.736 433.196C752.024 434.12 751.309 435.045 750.597 435.969C757.518 440.758 766.676 443.573 774.409 438.788C780.647 434.927 782.578 427.64 779.617 421.095C778.763 419.207 775.98 420.592 776.401 422.452C778.954 433.733 771.591 442.918 759.94 441.223C753 440.212 747.337 436.866 741.858 432.679C740.698 431.788 739.402 433.647 740.343 434.637Z" fill="#282A3E"/>
<path d="M758.268 440.485C756.919 445.542 763.105 445.529 766.462 445.598C771.613 445.702 778.3 446.961 781.627 441.968C784.104 438.25 784.513 431.861 782.257 427.954C780.15 424.301 775.806 423.52 772.604 426.097C771.241 427.193 772.417 429.407 773.976 429.41C775.083 429.413 777.096 429.228 778.025 429.835C779.79 430.989 779.551 433.366 778.813 434.943C777.699 437.331 775.811 438.827 773.307 439.566C773.94 440.653 774.572 441.74 775.204 442.827C777.738 439.754 779.878 436.736 779.678 432.6C778.408 432.773 777.138 432.943 775.868 433.116C777.232 437.104 773.984 437.73 771.023 438.248C769.005 438.602 769.786 441.297 771.466 441.512C777.691 442.31 781.613 437.986 779.61 432.083C778.941 430.11 775.695 430.303 775.8 432.599C775.944 435.708 774.33 437.792 772.447 440.066C771.279 441.476 772.333 443.916 774.344 443.326C779.085 441.937 782.949 438.043 783.392 432.957C783.912 426.977 779.088 425.515 773.976 425.527C774.434 426.631 774.89 427.736 775.348 428.84C779.315 425.619 779.868 434.022 779.779 435.28C779.531 438.852 778.334 441.24 774.389 441.952C773.027 442.198 760.682 442.583 760.794 440.827C760.885 439.364 758.636 439.104 758.268 440.485Z" fill="#282A3E"/>
<path d="M780.465 466.845L799.776 502.115L779.875 507.639L780.465 466.845Z" fill="#F4DB5E"/>
<path d="M722.586 487.24L717.483 530.364L735.647 533.431L741.732 497.265L722.586 487.24Z" fill="#C39769"/>
<path d="M740.146 460.637L730.008 463.322L709.537 498.746L739.464 510.601L750.215 475.352L740.146 460.637Z" fill="#F4DB5E"/>
<path d="M709.537 549.63C711.14 544.342 715.684 540.548 720.131 537.268C728.693 530.952 737.754 525.317 747.206 520.431C748.712 524.365 748.181 528.861 746.54 532.74C744.899 536.62 742.227 539.969 739.414 543.102C735.061 547.947 730.281 552.409 725.147 556.417C723.602 557.624 721.95 558.822 720.022 559.173C716.815 559.757 713.516 557.718 711.938 554.865C710.359 552.011 710.259 548.54 710.884 545.34" fill="#C39769"/>
<path d="M741.796 539.646C743.355 537.271 745.111 535.096 747.049 533.022C748.629 531.33 750.998 529.763 752.082 527.727C752.377 527.172 751.884 526.419 751.232 526.621C748.865 527.357 746.811 529.956 745.271 531.803C743.445 533.994 741.871 536.392 740.475 538.875C739.991 539.738 741.259 540.465 741.796 539.646Z" fill="#C39769"/>
<path d="M703.193 543.775C703.193 543.775 711.342 584.07 750.228 581.31C789.116 578.549 773.47 562.61 773.47 562.61L703.193 543.775Z" fill="#1E1029"/>
<path d="M751.419 581.862C751.419 581.862 730.529 589.705 700.041 585.783C700.041 585.783 698.771 579.744 700.041 576.357C701.311 572.969 703.806 570.852 710.391 572.546C716.977 574.239 731.915 577.627 746.676 576.779L751.419 581.862Z" fill="#414141"/>
<path d="M794.59 581.862C794.59 581.862 813.645 589.705 841.452 585.783C841.452 585.783 842.61 579.744 841.452 576.357C840.294 572.969 838.018 570.852 832.011 572.546C826.005 574.239 812.38 577.627 798.916 576.779L794.59 581.862Z" fill="#414141"/>
<path d="M822.13 543.775C822.13 543.775 804.014 584.07 770.392 581.31C736.77 578.549 761.367 562.61 761.367 562.61L822.13 543.775Z" fill="#1E1029"/>
<path d="M822.502 544.345C813.858 555.699 789.61 580.295 738.293 586.882L729.888 573.049C728.405 574.977 762.024 559.676 808.781 530.356C822.13 521.987 826.272 539.396 822.502 544.345Z" fill="#474D87"/>
<path d="M706.9 551.632C724.457 566.412 763.38 580.361 812.967 588.192L818.28 575.155C818.28 575.155 718.774 510.36 704.693 536.62C702.113 541.434 702.754 548.141 706.9 551.632Z" fill="#474D87"/>
<path d="M765.732 531.949H752.806C751.375 531.949 750.215 530.789 750.215 529.358V501.448C750.215 500.016 751.375 498.856 752.806 498.856H765.732C767.164 498.856 768.323 500.016 768.323 501.448V529.358C768.323 530.789 767.164 531.949 765.732 531.949Z" fill="#322736"/>
<path d="M745.393 523.449C747.275 522.235 749.187 521.075 751.156 520.009C751.999 519.552 752.85 519.096 753.705 518.664C754.973 518.024 755.464 517.556 756.285 518.981C757.271 520.69 756.495 520.996 755.077 521.868C754.242 522.382 753.401 522.888 752.553 523.382C750.317 524.685 747.861 526.367 745.141 525.908C745.244 526.687 745.345 527.467 745.447 528.246C748.979 525.566 752.494 522.862 755.989 520.133C756.697 519.58 756.324 518.535 755.729 518.114C754.612 517.326 753.503 518.037 752.398 518.545C750.311 519.501 748.326 520.609 746.402 521.859C744.885 522.845 746.197 525.011 747.804 524.258C750.445 523.019 753.067 521.74 755.694 520.471C755.208 519.641 754.722 518.808 754.236 517.978C751.623 519.931 748.954 521.805 746.334 523.747C744.947 524.775 745.7 527.133 747.562 526.659C750.785 525.84 753.436 524.031 756.054 522.039C755.392 521.182 754.731 520.325 754.07 519.468C753.171 520.35 752.272 521.232 751.373 522.112C750.207 523.255 751.396 525.293 752.966 524.849C755.119 524.239 758.806 522.173 758.542 519.481C758.265 516.643 755.352 516.964 753.702 518.332C754.607 518.858 755.512 519.386 756.417 519.912C756.53 519.515 756.644 519.117 756.756 518.72C756.235 519.116 755.715 519.512 755.195 519.908C756.166 519.886 756.608 519.714 757.283 519.027C758.164 518.135 757.653 516.868 756.603 516.452C756.444 516.388 756.284 516.324 756.124 516.261C754.784 515.73 753.624 517.784 754.708 518.694C754.84 518.805 754.973 518.916 755.105 519.027C755.209 518.22 755.313 517.414 755.417 516.607C755.344 516.629 755.27 516.65 755.197 516.672C754.473 516.68 753.843 517.171 753.638 517.86C753.52 518.256 753.402 518.652 753.284 519.048C752.781 520.735 754.826 521.578 755.999 520.628C755.13 519.936 754.397 520.027 753.798 520.903C753.29 521.289 752.724 521.552 752.095 521.69C752.626 522.603 753.157 523.514 753.688 524.427C754.587 523.545 755.486 522.663 756.385 521.783C757.67 520.522 755.914 518.059 754.4 519.212C752.014 521.03 749.659 522.803 746.714 523.587C747.124 524.557 747.532 525.529 747.942 526.499C750.539 524.508 753.087 522.451 755.694 520.471C757.151 519.364 755.942 517.14 754.236 517.979C751.622 519.266 749.001 520.544 746.402 521.862C746.869 522.662 747.337 523.461 747.804 524.261C748.933 523.478 750.08 522.732 751.274 522.05C751.595 521.867 754.262 520.217 754.433 520.338C754.346 519.665 754.259 518.993 754.174 518.319C750.853 520.917 747.514 523.489 744.159 526.04C743.396 526.619 743.251 528.173 744.465 528.378C748.309 529.025 751.497 526.99 754.689 525.09C756.631 523.933 759.867 522.78 759.452 520.007C759.177 518.164 757.232 515.323 755.17 515.421C753.562 515.497 751.336 517.309 750.049 518.111C748.145 519.301 746.3 520.574 744.491 521.903C743.577 522.567 744.402 524.088 745.393 523.449Z" fill="#C39769"/>
<path d="M746.194 523.197C746.524 522.428 746.881 521.678 747.259 520.933C747.424 520.607 748.045 518.836 748.383 518.724C748.742 518.604 748.869 518.929 749.02 519.173C749.115 519.345 749.2 519.52 749.278 519.701C749.372 520.061 749.413 520.118 749.397 519.871C749.298 520.096 748.588 520.393 748.396 520.516C747.95 520.801 747.506 521.088 747.061 521.374C747.599 521.913 748.137 522.45 748.675 522.989C749.329 521.68 749.813 520.323 750.091 518.885C750.346 517.571 748.65 516.769 747.896 517.96C747.505 518.577 747.1 519.238 746.505 519.676C747.174 520.059 747.843 520.444 748.512 520.828C748.522 520.118 748.605 519.398 748.366 518.719C747.955 517.552 746.421 517.566 746.004 518.719C745.76 519.395 745.84 520.118 745.842 520.828C745.847 522.198 747.617 522.58 748.329 521.501C748.852 520.707 749.467 519.985 749.97 519.174C749.239 518.865 748.506 518.556 747.775 518.249C747.55 519.486 747.19 520.668 746.638 521.799C746.162 522.781 747.191 524.114 748.253 523.414C749.366 522.681 751.479 521.832 751.681 520.343C751.849 519.107 750.855 517.403 749.788 516.782C746.489 514.863 745.195 520.418 744.642 522.545C744.411 523.436 745.803 524.11 746.194 523.197Z" fill="#C39769"/>
<path d="M748.012 518.254C748.137 517.526 748.224 516.799 748.164 516.059C748.103 515.331 747.791 514.672 747.689 513.968C747.606 513.402 747.833 514.068 747.956 514.295C748.172 514.693 748.378 515.101 748.544 515.523C748.901 516.434 749.033 517.344 748.979 518.321C749.516 518.248 750.053 518.175 750.59 518.102C750.221 516.413 749.487 514.932 748.493 513.525C747.974 512.792 746.846 513.047 746.798 513.985C746.728 515.345 746.937 516.608 747.412 517.884C747.793 518.909 749.497 518.853 749.443 517.61C749.406 516.765 749.263 516.004 748.935 515.22C748.558 514.317 747.187 514.112 746.886 515.22C746.548 516.459 746.046 517.738 746.012 519.032C745.987 519.98 747.369 520.371 747.821 519.521C748.426 518.383 748.622 517.029 748.937 515.786C748.29 515.871 747.642 515.955 746.995 516.04C747.223 516.557 747.335 517.048 747.378 517.61C748.055 517.518 748.732 517.426 749.409 517.335C748.966 516.251 748.704 515.154 748.62 513.985C748.103 514.199 747.585 514.413 747.068 514.627C748.04 515.754 748.637 517.108 749.011 518.538C749.244 519.428 750.638 519.252 750.623 518.319C750.601 516.92 750.221 515.608 749.637 514.342C749.251 513.503 748.696 512.052 747.575 512.002C746.782 511.968 746.206 512.718 746.155 513.447C746.108 514.101 746.461 514.739 746.621 515.354C746.857 516.262 746.94 517.169 746.899 518.103C746.864 518.732 747.901 518.894 748.012 518.254Z" fill="#C39769"/>
<path d="M751.828 518.019C756.489 516.427 758.754 511.693 762.986 509.428C762.509 509.234 762.032 509.04 761.556 508.846C761.692 509.544 759.614 510.931 759.153 511.327C758.202 512.145 757.245 512.954 756.279 513.752C754.705 515.054 752.562 516.248 751.527 518.026C751.261 518.481 751.701 519.06 752.211 518.917C754.908 518.164 757.459 515.268 759.558 513.5C761.107 512.195 763.883 510.686 763.431 508.329C763.307 507.685 762.515 507.475 762.001 507.747C757.772 509.988 755.483 514.509 751.34 516.866C750.735 517.212 751.139 518.255 751.828 518.019Z" fill="#C39769"/>
<path d="M753.94 518.118C754.749 519.626 756.986 517.857 757.894 517.364C759.226 516.64 760.552 515.901 761.875 515.161C763.28 514.375 765.073 512.844 766.635 512.494C766.239 512.332 765.843 512.171 765.447 512.011C765.231 511.565 763.252 513.364 762.857 513.627C761.906 514.259 760.911 514.836 759.934 515.428C757.936 516.64 755.812 517.725 753.934 519.115C752.939 519.851 753.772 521.347 754.913 520.79C758.107 519.23 761.244 517.12 764.228 515.184C765.54 514.333 768.133 512.801 767.262 510.947C767.058 510.513 766.501 510.373 766.074 510.464C764.061 510.893 761.786 512.731 760.006 513.768C758.958 514.378 757.905 514.981 756.862 515.6C756.298 515.934 754.724 517.165 754.473 517.187C754.007 517.23 753.706 517.68 753.94 518.118Z" fill="#C39769"/>
<path d="M754.799 521.509C759.556 521.089 763.687 518.293 768.166 516.836C767.815 516.379 767.464 515.923 767.114 515.466C764.291 519.275 758.235 519.883 754.17 521.814C753.135 522.307 753.865 523.98 754.947 523.654C757.797 522.792 760.587 521.533 763.324 520.361C765.493 519.433 767.329 518.334 768.723 516.406C769.197 515.75 768.41 514.786 767.671 515.036C763.251 516.534 759.201 519.306 754.635 520.291C753.964 520.437 754.099 521.569 754.799 521.509Z" fill="#C39769"/>
<path d="M753.143 525.231C758.05 524.209 762.936 523.084 767.845 522.067C767.638 521.579 767.433 521.09 767.227 520.603C763.15 523.247 757.232 523.484 752.646 525.049C748.277 526.54 743.665 528.139 739.962 530.942C739.02 531.655 739.515 533.608 740.859 533.071C746.028 531.001 750.697 528.03 756.013 526.228C759.989 524.88 764.514 524.366 768.035 521.986C768.815 521.458 768.307 520.381 767.418 520.522C762.443 521.312 757.572 522.351 752.767 523.874C751.902 524.149 752.258 525.416 753.143 525.231Z" fill="#C39769"/>
<path d="M752.819 524.84C750.914 525.671 748.683 525.933 746.873 526.97C745.193 527.933 743.387 530.219 743.6 532.213C743.673 532.902 744.277 533.259 744.914 532.967C746.627 532.18 747.048 530.022 748.764 529.209C750.644 528.318 752.179 527.465 753.817 526.136C754.607 525.495 753.598 524.5 752.819 524.84Z" fill="#C39769"/>
<path d="M744.902 534.665C746.409 532.433 748.159 530.633 750.441 529.196C752.312 528.016 754.748 527.148 756.254 525.515C756.549 525.195 756.255 524.718 755.841 524.805C753.469 525.299 750.745 527.042 748.811 528.499C746.77 530.036 745.298 531.95 744.045 534.164C743.725 534.726 744.548 535.193 744.902 534.665Z" fill="#C39769"/>
<path d="M700.323 435.711C701.098 435.711 701.855 435.444 702.467 434.932C703.429 434.123 703.788 432.9 703.402 431.74L700.554 423.173C707.474 422.26 712.816 416.643 712.816 409.873V376.76C712.816 369.355 706.424 363.33 698.569 363.33H646.067C638.211 363.33 631.82 369.355 631.82 376.76V409.873C631.82 417.278 638.211 423.304 646.067 423.304H670.028L698.996 435.442C699.426 435.623 699.877 435.711 700.323 435.711Z" fill="#D8FFDD"/>
<path d="M659.348 383.426C659.348 381.888 659.792 380.329 660.682 378.75C661.57 377.17 662.868 375.864 664.572 374.827C666.278 373.792 668.267 373.273 670.542 373.273C672.654 373.273 674.521 373.706 676.137 374.573C677.754 375.439 679.004 376.617 679.887 378.106C680.769 379.596 681.21 381.216 681.21 382.965C681.21 384.342 680.959 385.547 680.456 386.584C679.953 387.621 679.355 388.515 678.663 389.268C677.97 390.021 676.728 391.29 674.935 393.07C674.44 393.572 674.042 394.013 673.744 394.395C673.445 394.775 673.223 395.124 673.077 395.439C672.931 395.755 672.817 396.071 672.738 396.387C672.658 396.702 672.538 397.257 672.378 398.049C672.102 399.734 671.234 400.577 669.776 400.577C669.019 400.577 668.38 400.3 667.863 399.751C667.347 399.201 667.087 398.381 667.087 397.298C667.087 395.936 667.277 394.758 667.655 393.763C668.034 392.768 668.537 391.894 669.164 391.141C669.79 390.388 670.636 389.492 671.7 388.456C672.633 387.55 673.306 386.865 673.723 386.404C674.139 385.941 674.488 385.428 674.772 384.861C675.056 384.296 675.197 383.679 675.197 383.017C675.197 381.72 674.764 380.627 673.896 379.738C673.029 378.847 671.911 378.401 670.542 378.401C668.938 378.401 667.758 378.851 666.999 379.75C666.241 380.649 665.6 381.973 665.075 383.721C664.58 385.552 663.639 386.468 662.254 386.468C661.438 386.468 660.75 386.148 660.188 385.508C659.626 384.869 659.348 384.172 659.348 383.426ZM670.015 410.05C669.126 410.05 668.351 409.73 667.687 409.09C667.024 408.452 666.691 407.557 666.691 406.406C666.691 405.386 667.011 404.528 667.654 403.832C668.295 403.135 669.082 402.787 670.015 402.787C670.934 402.787 671.706 403.135 672.333 403.832C672.96 404.528 673.272 405.386 673.272 406.406C673.272 407.539 672.945 408.431 672.29 409.078C671.634 409.725 670.875 410.05 670.015 410.05Z" fill="#413847"/>
</svg>
