<svg width="500" height="500" viewBox="0 0 500 500" fill="none" xmlns="http://www.w3.org/2000/svg">
<g clip-path="url(#clip0_74_835)">
<path d="M247.451 101.545C239.585 77.6818 252.564 51.9638 276.441 44.1025L351.781 19.2965C375.658 11.4352 401.389 24.4075 409.255 48.271L433.967 123.244C441.832 147.108 428.853 172.826 404.977 180.687L329.636 205.493C305.76 213.355 280.028 200.382 272.162 176.519L247.451 101.545Z" fill="#19AAE3"/>
<path d="M304.772 76.4297L330.961 155.884C331.823 158.498 334.637 159.899 337.231 159.045C338.582 158.601 339.699 157.591 340.261 156.266L351.295 130.186L371.966 151.006C374.775 153.834 379.344 153.85 382.173 151.042C385.002 148.234 385.019 143.668 382.209 140.84L362.022 120.479L387.342 112.142C389.958 111.281 391.381 108.461 390.52 105.846C390.075 104.497 389.072 103.401 387.768 102.833L311.826 69.998C310.636 69.4872 309.33 69.4184 308.108 69.8208C305.364 70.7243 303.868 73.687 304.772 76.4297Z" fill="white"/>
<path d="M227.924 321.851C220.058 297.988 233.037 272.27 256.914 264.408L415.517 212.188C439.393 204.327 465.125 217.299 472.991 241.163L497.702 316.136C505.568 340 492.589 365.718 468.712 373.579L310.109 425.799C286.233 433.661 260.501 420.688 252.635 396.825L227.924 321.851Z" fill="#23BC60"/>
<path d="M364.275 326.482C372.994 323.611 380.216 317.395 384.35 309.203C388.484 301.011 389.193 291.513 386.321 282.798C383.449 274.083 377.23 266.866 369.034 262.734C360.837 258.602 351.334 257.893 342.614 260.764C333.895 263.635 326.674 269.85 322.539 278.042C318.405 286.235 317.696 295.733 320.568 304.447C323.441 313.162 329.659 320.379 337.856 324.512C346.052 328.644 355.556 329.352 364.275 326.482ZM345.061 340.902C324.719 347.6 313.665 369.502 320.366 389.834C321.645 393.713 325.826 395.802 329.684 394.531L432.56 360.659C436.441 359.381 438.531 355.202 437.26 351.346C430.559 331.015 408.645 319.967 388.303 326.665L345.061 340.902Z" fill="white"/>
<path d="M66.2378 376.253C58.3723 352.389 71.3516 326.671 95.2279 318.81L139.232 304.321C163.108 296.46 188.84 309.432 196.706 333.296L221.253 407.772C229.119 431.636 216.14 457.354 192.263 465.215L148.259 479.703C124.383 487.565 98.6512 474.592 90.7857 450.729L66.2378 376.253Z" fill="#E94C4E"/>
<path d="M131.532 356.727C111.934 363.18 101.286 384.279 107.742 403.867L109.99 410.686C110.737 412.953 109.513 415.378 107.245 416.125C104.976 416.872 102.55 415.649 101.803 413.381L99.555 406.562C91.6099 382.458 104.717 356.486 128.835 348.545C152.953 340.604 178.939 353.704 186.884 377.809L194.981 402.374C197.712 410.659 193.205 419.589 184.899 422.324L166.08 428.501C165.468 431.405 163.369 433.929 160.333 434.928L154.875 436.725C150.355 438.214 145.48 435.756 143.991 431.238C142.502 426.721 144.961 421.848 149.481 420.36L154.939 418.563C157.975 417.563 161.164 418.346 163.383 420.318L182.219 414.135C185.988 412.894 188.036 408.837 186.794 405.07L178.697 380.505C172.241 360.917 151.13 350.275 131.532 356.727ZM121.419 390.293L124.148 389.394C127.167 388.4 130.41 390.035 131.404 393.052L137.698 412.145C138.692 415.163 137.057 418.404 134.038 419.398L131.309 420.296C125.288 422.279 118.78 418.998 116.796 412.98L114.099 404.797C112.116 398.78 115.398 392.275 121.419 390.293ZM159.626 377.713C165.647 375.731 172.155 379.012 174.138 385.029L176.835 393.212C178.819 399.23 175.536 405.734 169.515 407.717L166.786 408.615C163.767 409.609 160.524 407.974 159.53 404.957L153.237 385.864C152.242 382.847 153.878 379.606 156.897 378.612L159.626 377.713Z" fill="white"/>
<path d="M2.29775 182.262C-5.56779 158.399 7.4115 132.681 31.2878 124.82L158.412 82.9636C182.289 75.1023 208.021 88.0746 215.886 111.938L240.434 186.415C248.299 210.278 235.32 235.996 211.444 243.857L84.3193 285.713C60.4429 293.575 34.7111 280.602 26.8456 256.739L2.29775 182.262Z" fill="#FFDD35"/>
<path d="M136.325 227.934C168.285 217.411 187.274 187.908 178.742 162.022C170.21 136.136 137.394 123.689 105.434 134.212C73.4736 144.735 54.4843 174.238 63.0165 200.124C66.3655 210.285 73.4627 218.362 82.7756 223.812C84.1655 229.473 83.637 235.092 82.6094 239.576C82.0495 242.058 81.3332 244.142 80.7778 245.573C80.4888 246.293 80.2682 246.84 80.0935 247.222C80.0025 247.402 79.9492 247.544 79.9036 247.634L79.8581 247.724C79.16 249.103 79.3711 250.731 80.3817 251.897C81.3923 253.063 82.9929 253.51 84.462 253.026C90.949 250.89 96.8203 246.734 101.473 242.605C105.906 238.648 109.43 234.516 111.474 231.67C119.515 231.895 127.947 230.717 136.332 227.956L136.325 227.934ZM89.5717 183.389C91.4899 182.758 93.58 182.912 95.3821 183.817C97.1841 184.722 98.5505 186.305 99.1808 188.217C99.811 190.129 99.6533 192.214 98.7426 194.013C97.8318 195.811 96.2424 197.176 94.3241 197.808C92.4059 198.44 90.3158 198.286 88.5137 197.38C86.7117 196.475 85.3453 194.892 84.715 192.98C84.0848 191.068 84.2425 188.984 85.1532 187.185C86.064 185.386 87.6534 184.021 89.5717 183.389ZM118.503 173.864C120.421 173.232 122.511 173.386 124.314 174.291C126.116 175.197 127.482 176.78 128.112 178.692C128.742 180.604 128.585 182.688 127.674 184.487C126.763 186.285 125.174 187.651 123.256 188.282C121.337 188.914 119.247 188.76 117.445 187.855C115.643 186.949 114.277 185.366 113.646 183.454C113.016 181.542 113.174 179.458 114.085 177.659C114.995 175.861 116.585 174.495 118.503 173.864ZM142.578 173.929C141.948 172.017 142.105 169.932 143.016 168.133C143.927 166.335 145.516 164.97 147.435 164.338C149.353 163.706 151.443 163.86 153.245 164.766C155.047 165.671 156.413 167.254 157.044 169.166C157.674 171.078 157.516 173.162 156.605 174.961C155.695 176.76 154.105 178.125 152.187 178.757C150.269 179.388 148.179 179.234 146.377 178.329C144.575 177.424 143.208 175.841 142.578 173.929Z" fill="white"/>
</g>
<defs>
<clipPath id="clip0_74_835">
<rect width="500" height="500" fill="white"/>
</clipPath>
</defs>
</svg>
