<svg width="500" height="500" viewBox="0 0 500 500" fill="none" xmlns="http://www.w3.org/2000/svg">
<g clip-path="url(#clip0_74_849)">
<rect x="232.751" y="65.0078" width="164.915" height="164.582" rx="24" transform="rotate(-18.2334 232.751 65.0078)" fill="#19AAE3"/>
<path d="M302.028 82.5323L327.379 159.489C328.214 162.021 330.938 163.378 333.45 162.551C334.757 162.12 335.838 161.143 336.382 159.86L347.064 134.599L367.074 154.764C369.794 157.503 374.216 157.519 376.955 154.799C379.694 152.079 379.71 147.657 376.99 144.918L357.448 125.197L381.959 117.122C384.491 116.288 385.869 113.556 385.035 111.024C384.604 109.717 383.634 108.656 382.371 108.106L308.856 76.3027C307.704 75.808 306.439 75.7414 305.256 76.1311C302.6 77.0062 301.152 79.8757 302.028 82.5323Z" fill="white"/>
<path d="M221.357 301.184C217.21 288.595 224.053 275.027 236.643 270.88L428.289 207.746C440.878 203.599 454.446 210.442 458.593 223.032L495.07 333.76C499.218 346.349 492.374 359.917 479.785 364.064L288.138 427.198C275.549 431.345 261.981 424.501 257.834 411.912L221.357 301.184Z" fill="#23BC60"/>
<path d="M359.629 324.724C368.07 321.944 375.06 315.924 379.063 307.989C383.065 300.055 383.751 290.855 380.971 282.414C378.19 273.973 372.17 266.983 364.236 262.981C356.301 258.978 347.101 258.292 338.66 261.073C330.22 263.853 323.229 269.873 319.227 277.808C315.225 285.742 314.538 294.942 317.319 303.383C320.1 311.824 326.119 318.814 334.054 322.816C341.989 326.819 351.188 327.505 359.629 324.724ZM341.029 338.692C321.337 345.179 310.636 366.393 317.124 386.085C318.361 389.842 322.409 391.865 326.144 390.635L425.732 357.828C429.49 356.59 431.513 352.542 430.282 348.807C423.795 329.115 402.581 318.415 382.889 324.902L341.029 338.692Z" fill="white"/>
<path d="M64.8374 353.875C60.6902 341.286 67.5338 327.718 80.1231 323.571L160.832 296.983C173.421 292.836 186.989 299.68 191.136 312.269L227.455 422.515C231.602 435.105 224.758 448.672 212.169 452.82L131.46 479.408C118.871 483.555 105.303 476.711 101.156 464.122L64.8374 353.875Z" fill="#E94C4E"/>
<path d="M134.323 354.019C115.351 360.269 105.043 380.705 111.293 399.677L113.469 406.282C114.192 408.478 113.008 410.826 110.812 411.55C108.616 412.273 106.267 411.089 105.543 408.893L103.368 402.288C95.6764 378.941 108.365 353.785 131.712 346.094C155.059 338.403 180.215 351.091 187.906 374.438L195.744 398.232C198.388 406.256 194.026 414.905 185.985 417.554L167.767 423.537C167.174 426.349 165.143 428.794 162.204 429.762L156.92 431.503C152.544 432.944 147.825 430.564 146.384 426.188C144.942 421.813 147.323 417.093 151.698 415.652L156.982 413.911C159.921 412.943 163.008 413.702 165.156 415.611L183.39 409.623C187.039 408.421 189.021 404.491 187.819 400.842L179.981 377.049C173.731 358.078 153.295 347.77 134.323 354.019ZM124.533 386.53L127.175 385.659C130.098 384.697 133.237 386.28 134.199 389.203L140.291 407.695C141.254 410.618 139.671 413.757 136.748 414.72L134.107 415.59C128.278 417.51 121.978 414.332 120.058 408.504L117.447 400.578C115.527 394.75 118.705 388.45 124.533 386.53ZM161.519 374.346C167.348 372.426 173.647 375.603 175.568 381.432L178.178 389.357C180.098 395.186 176.921 401.486 171.092 403.406L168.45 404.276C165.528 405.239 162.389 403.656 161.426 400.733L155.334 382.24C154.371 379.318 155.955 376.179 158.877 375.216L161.519 374.346Z" fill="white"/>
<path d="M2.94046 165.983C-1.20682 153.393 5.6368 139.826 18.2261 135.678L179.4 82.5833C191.989 78.436 205.557 85.2796 209.704 97.8689L246.022 208.116C250.17 220.705 243.326 234.273 230.737 238.42L69.5631 291.515C56.9738 295.662 43.4061 288.819 39.2588 276.229L2.94046 165.983Z" fill="#FFDD35"/>
<path d="M138.963 229.274C169.902 219.082 188.285 190.506 180.025 165.434C171.766 140.361 139.998 128.306 109.059 138.498C78.1201 148.691 59.7375 177.266 67.997 202.339C71.239 212.18 78.1095 220.003 87.1249 225.282C88.4703 230.765 87.9587 236.207 86.964 240.55C86.4219 242.954 85.7285 244.972 85.1908 246.359C84.9111 247.056 84.6976 247.586 84.5284 247.956C84.4403 248.13 84.3887 248.268 84.3446 248.355L84.3006 248.442C83.6247 249.778 83.8291 251.355 84.8074 252.484C85.7857 253.613 87.3351 254.046 88.7574 253.578C95.0371 251.509 100.721 247.484 105.224 243.484C109.516 239.652 112.928 235.649 114.906 232.893C122.691 233.11 130.853 231.97 138.97 229.296L138.963 229.274ZM93.7037 186.13C95.5607 185.518 97.584 185.667 99.3285 186.544C101.073 187.421 102.396 188.954 103.006 190.806C103.616 192.658 103.463 194.677 102.582 196.419C101.7 198.161 100.161 199.483 98.3043 200.095C96.4474 200.707 94.4241 200.558 92.6796 199.681C90.9351 198.804 89.6124 197.271 89.0023 195.419C88.3922 193.567 88.5448 191.548 89.4265 189.806C90.3082 188.064 91.8468 186.741 93.7037 186.13ZM121.711 176.903C123.568 176.292 125.591 176.441 127.335 177.318C129.08 178.195 130.403 179.728 131.013 181.58C131.623 183.431 131.47 185.451 130.589 187.193C129.707 188.935 128.168 190.257 126.311 190.869C124.454 191.481 122.431 191.332 120.687 190.455C118.942 189.578 117.619 188.045 117.009 186.193C116.399 184.341 116.552 182.322 117.433 180.58C118.315 178.838 119.854 177.515 121.711 176.903ZM145.016 176.966C144.406 175.114 144.559 173.095 145.44 171.353C146.322 169.611 147.861 168.289 149.718 167.677C151.575 167.065 153.598 167.214 155.342 168.091C157.087 168.968 158.41 170.501 159.02 172.353C159.63 174.205 159.477 176.224 158.596 177.966C157.714 179.708 156.175 181.031 154.318 181.643C152.461 182.254 150.438 182.105 148.694 181.228C146.949 180.351 145.626 178.818 145.016 176.966Z" fill="white"/>
</g>
<defs>
<clipPath id="clip0_74_849">
<rect width="500" height="500" fill="white"/>
</clipPath>
</defs>
</svg>
