<svg width="500" height="500" viewBox="0 0 500 500" fill="none" xmlns="http://www.w3.org/2000/svg">
<path d="M82.9089 450.412L67.5095 497.612V497.542C67.2282 498.244 66.8298 498.829 66.3141 499.298C65.8453 499.719 65.2594 499.93 64.5562 499.93C64.1812 499.93 63.8062 499.883 63.4311 499.789C63.103 499.742 62.7514 499.672 62.3764 499.579H62.4467C59.7747 498.736 58.7902 497.237 59.4934 495.083L75.5256 446.409C75.76 445.66 76.1585 445.027 76.721 444.512C77.3304 443.997 78.0336 443.693 78.8305 443.599C79.6274 443.459 80.4009 443.365 81.1509 443.318C81.901 443.225 82.487 443.178 82.9089 443.178C83.3308 443.178 83.9167 443.225 84.6668 443.318C85.4168 443.365 86.1903 443.435 86.9872 443.529C87.6435 443.623 88.2764 443.974 88.8858 444.583C89.5421 445.191 90.0343 445.8 90.3624 446.409C92.9876 454.463 95.6362 462.587 98.3082 470.781C101.027 478.929 103.699 487.029 106.324 495.083C106.981 497.237 105.996 498.736 103.371 499.579C102.996 499.672 102.644 499.742 102.316 499.789C102.035 499.883 101.707 499.93 101.332 499.93C100.676 499.93 100.066 499.719 99.5036 499.298C98.9879 498.829 98.6129 498.244 98.3785 497.542V497.612L82.9089 450.412ZM88.1826 482.441C88.1826 483.939 87.6435 485.227 86.5653 486.304C85.534 487.334 84.2683 487.849 82.7682 487.849C81.2681 487.849 80.0024 487.334 78.9711 486.304C77.9398 485.227 77.4242 483.939 77.4242 482.441C77.4242 480.942 77.9398 479.678 78.9711 478.648C80.0024 477.571 81.2681 477.032 82.7682 477.032C84.2683 477.032 85.534 477.571 86.5653 478.648C87.6435 479.678 88.1826 480.942 88.1826 482.441Z" fill="white"/>
<path d="M192.712 488.06C192.712 491.852 191.446 494.685 188.915 496.558C187.696 497.448 186.43 498.15 185.117 498.666C183.852 499.134 182.609 499.368 181.391 499.368H166.062C164.843 499.368 163.577 499.134 162.264 498.666C160.999 498.15 159.757 497.448 158.538 496.558C157.319 495.622 156.381 494.475 155.725 493.117C155.069 491.712 154.741 490.026 154.741 488.06V446.549C154.741 444.302 156.124 443.178 158.889 443.178C161.702 443.178 163.108 444.302 163.108 446.549V487.498C163.108 488.715 163.46 489.816 164.163 490.799C164.866 491.782 166.085 492.274 167.82 492.274H179.633C181.367 492.274 182.586 491.782 183.289 490.799C183.992 489.816 184.344 488.715 184.344 487.498V446.549C184.344 444.302 185.727 443.178 188.493 443.178C191.305 443.178 192.712 444.302 192.712 446.549V488.06Z" fill="white"/>
<path d="M265.587 476.189H260.172C259.375 476.189 258.742 475.885 258.274 475.276C257.852 474.621 257.641 473.755 257.641 472.678C257.641 470.29 258.625 469.095 260.594 469.095H268.821C270.556 469.095 271.774 468.604 272.478 467.62C273.181 466.637 273.532 465.56 273.532 464.39V455.329C273.532 454.158 273.181 453.081 272.478 452.098C271.774 451.115 270.556 450.623 268.821 450.623H253.984V496.418C253.984 498.666 252.601 499.789 249.836 499.789C247.07 499.789 245.687 498.666 245.687 496.418V447.743C245.687 446.058 246.109 444.934 246.953 444.372C247.843 443.81 248.898 443.529 250.117 443.529H270.579C271.798 443.529 273.064 443.787 274.376 444.302C275.689 444.817 276.954 445.472 278.173 446.268H278.103C279.322 447.158 280.259 448.329 280.916 449.78C281.572 451.185 281.9 452.824 281.9 454.697V464.951C281.9 468.744 280.634 471.577 278.103 473.45C277.587 473.825 277.025 474.176 276.415 474.504C275.853 474.832 275.267 475.159 274.657 475.487L285.908 494.03C286.049 494.264 286.189 494.568 286.33 494.943C286.471 495.318 286.541 495.622 286.541 495.856C286.541 496.98 285.744 498.057 284.15 499.087V499.017C283.072 499.672 282.158 500 281.408 500C280.33 500 279.462 499.462 278.806 498.385L278.876 498.455L265.587 476.189Z" fill="white"/>
<path d="M343.907 496.348C343.907 498.595 342.501 499.719 339.688 499.719C336.923 499.719 335.54 498.595 335.54 496.348V446.549C335.54 444.302 336.923 443.178 339.688 443.178C342.501 443.178 343.907 444.302 343.907 446.549V496.348Z" fill="white"/>
<path d="M424.012 467.199C425.231 467.199 426.497 467.457 427.809 467.972C429.122 468.487 430.388 469.166 431.606 470.009H431.536C432.755 470.851 433.693 471.999 434.349 473.45C435.005 474.902 435.333 476.564 435.333 478.437V488.06C435.333 491.852 434.068 494.685 431.536 496.558C430.317 497.448 429.052 498.15 427.739 498.666C426.473 499.134 425.231 499.368 424.012 499.368H408.683C407.464 499.368 406.199 499.134 404.886 498.666C403.62 498.15 402.378 497.448 401.159 496.558C398.628 494.685 397.362 491.852 397.362 488.06V483.424C397.362 481.223 398.745 480.123 401.511 480.123C404.324 480.123 405.73 481.223 405.73 483.424V487.498C405.73 488.715 406.082 489.816 406.785 490.799C407.488 491.782 408.707 492.274 410.441 492.274H422.254C423.989 492.274 425.208 491.782 425.911 490.799C426.614 489.816 426.966 488.715 426.966 487.498V478.999C426.966 477.828 426.614 476.751 425.911 475.768C425.208 474.738 423.989 474.223 422.254 474.223H408.683C406.246 474.223 403.738 473.333 401.159 471.554C398.628 469.587 397.362 466.754 397.362 463.055V454.697C397.362 452.824 397.69 451.185 398.347 449.78C399.003 448.329 399.941 447.158 401.159 446.268H401.089C402.308 445.472 403.574 444.817 404.886 444.302C406.199 443.787 407.464 443.529 408.683 443.529H424.012C425.231 443.529 426.497 443.787 427.809 444.302C429.122 444.817 430.388 445.472 431.606 446.268H431.536C432.755 447.158 433.693 448.329 434.349 449.78C435.005 451.185 435.333 452.824 435.333 454.697V458.841C435.333 461.042 433.927 462.142 431.114 462.142C428.348 462.142 426.966 461.042 426.966 458.841V455.329C426.966 454.158 426.614 453.081 425.911 452.098C425.208 451.115 423.989 450.623 422.254 450.623H410.441C408.707 450.623 407.488 451.115 406.785 452.098C406.082 453.081 405.73 454.158 405.73 455.329V462.493C405.73 463.711 406.082 464.811 406.785 465.794C407.488 466.731 408.707 467.199 410.441 467.199H424.012Z" fill="white"/>
<path d="M247.445 68.1035C241.106 48.8808 251.567 28.1643 270.811 21.8318L331.536 1.8499C350.78 -4.48259 371.52 5.96696 377.86 25.1896L397.777 85.5827C404.117 104.805 393.655 125.522 374.411 131.854L313.687 151.836C294.442 158.169 273.702 147.719 267.363 128.497L247.445 68.1035Z" fill="#19AAE3"/>
<path d="M293.647 47.8722L314.755 111.875C315.449 113.981 317.718 115.109 319.809 114.421C320.897 114.063 321.798 113.25 322.25 112.183L331.144 91.1747L347.804 107.945C350.069 110.223 353.751 110.236 356.031 107.974C358.312 105.712 358.325 102.034 356.06 99.7561L339.79 83.3548L360.198 76.6394C362.306 75.9457 363.453 73.674 362.759 71.5682C362.4 70.4808 361.592 69.5986 360.541 69.1409L299.332 42.6913C298.372 42.2799 297.32 42.2244 296.335 42.5485C294.123 43.2764 292.918 45.6629 293.647 47.8722Z" fill="white"/>
<path d="M231.706 245.566C225.367 226.343 235.828 205.627 255.072 199.294L382.907 157.229C402.151 150.897 422.891 161.346 429.23 180.569L449.148 240.962C455.488 260.185 445.026 280.901 425.782 287.234L297.948 329.299C278.704 335.631 257.964 325.182 251.624 305.959L231.706 245.566Z" fill="#23BC60"/>
<path d="M341.606 249.296C348.633 246.983 354.454 241.976 357.786 235.377C361.118 228.778 361.69 221.127 359.375 214.107C357.06 207.088 352.047 201.274 345.441 197.945C338.835 194.617 331.175 194.046 324.147 196.358C317.119 198.671 311.299 203.677 307.967 210.276C304.634 216.875 304.063 224.527 306.378 231.546C308.693 238.566 313.705 244.38 320.312 247.709C326.918 251.037 334.578 251.608 341.606 249.296ZM326.119 260.912C309.723 266.307 300.814 283.95 306.215 300.327C307.246 303.452 310.616 305.135 313.726 304.111L396.644 276.826C399.772 275.797 401.456 272.431 400.432 269.325C395.031 252.947 377.368 244.048 360.972 249.443L326.119 260.912Z" fill="white"/>
<path d="M101.388 289.387C95.0481 270.165 105.509 249.448 124.754 243.116L160.221 231.445C179.465 225.112 200.205 235.562 206.545 254.785L226.33 314.777C232.67 334 222.209 354.717 202.964 361.049L167.497 372.72C148.253 379.052 127.513 368.603 121.173 349.38L101.388 289.387Z" fill="#E94C4E"/>
<path d="M154.015 273.659C138.219 278.857 129.636 295.853 134.84 311.631L136.652 317.124C137.254 318.951 136.268 320.904 134.439 321.506C132.611 322.107 130.655 321.122 130.053 319.296L128.241 313.803C121.838 294.386 132.402 273.465 151.841 267.068C171.28 260.671 192.225 271.224 198.629 290.641L205.155 310.429C207.356 317.103 203.724 324.296 197.028 326.499L181.86 331.475C181.367 333.814 179.675 335.847 177.228 336.652L172.829 338.1C169.186 339.299 165.257 337.319 164.057 333.68C162.856 330.041 164.838 326.116 168.481 324.917L172.881 323.47C175.328 322.664 177.898 323.295 179.687 324.883L194.868 319.903C197.907 318.903 199.557 315.635 198.556 312.601L192.03 292.813C186.826 277.035 169.811 268.462 154.015 273.659ZM145.864 300.697L148.064 299.973C150.497 299.173 153.11 300.49 153.912 302.92L158.984 318.3C159.786 320.731 158.468 323.341 156.034 324.142L153.835 324.866C148.982 326.463 143.736 323.82 142.138 318.972L139.964 312.381C138.365 307.534 141.011 302.294 145.864 300.697ZM176.658 290.564C181.511 288.967 186.757 291.61 188.355 296.457L190.529 303.049C192.128 307.896 189.482 313.136 184.629 314.733L182.43 315.456C179.996 316.257 177.383 314.94 176.581 312.51L171.509 297.13C170.707 294.699 172.025 292.089 174.459 291.288L176.658 290.564Z" fill="white"/>
<path d="M49.852 133.123C43.5124 113.901 53.9737 93.184 73.218 86.8515L175.68 53.1354C194.925 46.8029 215.665 57.2525 222.004 76.4751L241.79 136.468C248.129 155.691 237.668 176.407 218.424 182.74L115.961 216.456C96.717 222.788 75.9772 212.339 69.6376 193.116L49.852 133.123Z" fill="#FFDD35"/>
<path d="M157.878 169.913C183.638 161.436 198.943 137.671 192.066 116.819C185.189 95.9669 158.74 85.9412 132.98 94.4177C107.22 102.894 91.9143 126.66 98.7913 147.512C101.491 155.696 107.211 162.203 114.717 166.593C115.837 171.153 115.411 175.679 114.583 179.291C114.132 181.29 113.555 182.969 113.107 184.122C112.874 184.701 112.696 185.142 112.555 185.45C112.482 185.595 112.439 185.709 112.402 185.782L112.366 185.854C111.803 186.965 111.973 188.277 112.788 189.216C113.602 190.155 114.892 190.515 116.076 190.125C121.305 188.405 126.037 185.057 129.787 181.731C133.36 178.544 136.201 175.215 137.848 172.923C144.329 173.103 151.125 172.155 157.884 169.931L157.878 169.913ZM120.195 134.031C121.741 133.522 123.425 133.646 124.878 134.376C126.33 135.105 127.432 136.38 127.94 137.92C128.448 139.46 128.321 141.139 127.586 142.588C126.852 144.037 125.571 145.137 124.025 145.646C122.479 146.154 120.795 146.03 119.342 145.301C117.89 144.572 116.788 143.297 116.28 141.757C115.772 140.216 115.899 138.537 116.634 137.088C117.368 135.64 118.649 134.54 120.195 134.031ZM143.514 126.358C145.06 125.849 146.744 125.973 148.197 126.702C149.649 127.432 150.75 128.707 151.258 130.247C151.766 131.787 151.639 133.466 150.905 134.915C150.171 136.364 148.89 137.464 147.344 137.972C145.798 138.481 144.113 138.357 142.661 137.628C141.208 136.899 140.107 135.624 139.599 134.083C139.091 132.543 139.218 130.864 139.952 129.415C140.686 127.966 141.967 126.867 143.514 126.358ZM162.918 126.41C162.41 124.87 162.537 123.191 163.271 121.742C164.005 120.293 165.286 119.193 166.832 118.685C168.378 118.176 170.063 118.3 171.515 119.029C172.968 119.758 174.069 121.033 174.577 122.574C175.085 124.114 174.958 125.793 174.224 127.242C173.49 128.691 172.209 129.79 170.663 130.299C169.117 130.808 167.432 130.684 165.98 129.955C164.527 129.225 163.426 127.95 162.918 126.41Z" fill="white"/>
</svg>
