<svg width="500" height="500" viewBox="0 0 500 500" fill="none" xmlns="http://www.w3.org/2000/svg">
<rect x="241.262" y="106.13" width="89.825" height="89.6436" rx="24" transform="rotate(-18.2334 241.262 106.13)" fill="#19AAE3"/>
<path d="M278.996 115.675L292.804 157.591C293.259 158.971 294.743 159.71 296.111 159.259C296.823 159.025 297.412 158.492 297.708 157.793L303.526 144.034L314.425 155.018C315.906 156.51 318.315 156.518 319.807 155.037C321.299 153.555 321.307 151.147 319.826 149.655L309.182 138.913L322.533 134.515C323.912 134.061 324.662 132.573 324.208 131.194C323.973 130.482 323.445 129.904 322.757 129.604L282.715 112.282C282.087 112.012 281.399 111.976 280.754 112.188C279.307 112.665 278.519 114.228 278.996 115.675Z" fill="white"/>
<path d="M238.476 245.148C234.328 232.559 241.172 218.991 253.761 214.844L337.388 187.295C349.978 183.148 363.545 189.991 367.693 202.581L380.722 242.133C384.87 254.723 378.026 268.29 365.437 272.438L281.81 299.987C269.22 304.134 255.653 297.29 251.505 284.701L238.476 245.148Z" fill="#23BC60"/>
<path d="M310.37 247.591C314.967 246.077 318.775 242.798 320.955 238.476C323.135 234.154 323.509 229.143 321.994 224.546C320.48 219.948 317.201 216.141 312.879 213.961C308.557 211.781 303.546 211.407 298.949 212.921C294.351 214.436 290.544 217.715 288.364 222.037C286.184 226.359 285.81 231.369 287.325 235.967C288.839 240.564 292.118 244.372 296.44 246.552C300.762 248.732 305.772 249.106 310.37 247.591ZM300.239 255.199C289.513 258.732 283.685 270.287 287.218 281.013C287.892 283.059 290.097 284.161 292.131 283.491L346.375 265.622C348.421 264.947 349.523 262.743 348.853 260.709C345.32 249.983 333.765 244.154 323.039 247.688L300.239 255.199Z" fill="white"/>
<path d="M153.223 273.848C149.076 261.259 155.92 247.691 168.509 243.544L191.711 235.9C204.3 231.753 217.868 238.597 222.015 251.186L234.959 290.476C239.106 303.066 232.262 316.633 219.673 320.781L196.471 328.424C183.882 332.571 170.314 325.728 166.167 313.138L153.223 273.848Z" fill="#E94C4E"/>
<path d="M187.651 263.547C177.318 266.952 171.703 278.083 175.107 288.416L176.292 292.013C176.686 293.21 176.041 294.489 174.845 294.883C173.649 295.277 172.37 294.632 171.976 293.436L170.791 289.838C166.601 277.122 173.512 263.42 186.229 259.231C198.946 255.041 212.648 261.953 216.837 274.669L221.106 287.629C222.546 292 220.17 296.71 215.79 298.153L205.867 301.412C205.544 302.944 204.438 304.275 202.837 304.803L199.959 305.751C197.576 306.536 195.005 305.239 194.22 302.856C193.435 300.473 194.732 297.902 197.115 297.117L199.993 296.169C201.594 295.642 203.275 296.055 204.445 297.095L214.377 293.833C216.364 293.179 217.444 291.038 216.789 289.051L212.52 276.091C209.116 265.758 197.985 260.143 187.651 263.547ZM182.319 281.255L183.758 280.781C185.35 280.257 187.059 281.119 187.584 282.711L190.902 292.783C191.426 294.375 190.564 296.085 188.972 296.609L187.533 297.083C184.359 298.129 180.927 296.398 179.881 293.224L178.459 288.907C177.413 285.732 179.144 282.301 182.319 281.255ZM202.464 274.619C205.639 273.573 209.07 275.304 210.116 278.478L211.538 282.795C212.584 285.97 210.853 289.401 207.678 290.447L206.24 290.921C204.648 291.445 202.938 290.583 202.414 288.991L199.095 278.919C198.571 277.327 199.433 275.617 201.025 275.093L202.464 274.619Z" fill="white"/>
<path d="M119.509 171.508C115.362 158.918 122.206 145.35 134.795 141.203L201.824 119.122C214.413 114.975 227.981 121.818 232.128 134.408L245.072 173.698C249.219 186.287 242.375 199.855 229.786 204.002L162.757 226.084C150.168 230.231 136.6 223.387 132.453 210.798L119.509 171.508Z" fill="#FFDD35"/>
<path d="M190.178 195.602C207.03 190.05 217.042 174.486 212.544 160.829C208.045 147.173 190.742 140.607 173.89 146.158C157.038 151.71 147.026 167.274 151.525 180.931C153.291 186.291 157.033 190.552 161.943 193.427C162.676 196.414 162.397 199.378 161.856 201.743C161.56 203.053 161.183 204.152 160.89 204.907C160.737 205.287 160.621 205.576 160.529 205.777C160.481 205.872 160.453 205.947 160.429 205.995L160.405 206.042C160.037 206.769 160.148 207.629 160.681 208.244C161.214 208.859 162.058 209.094 162.832 208.839C166.253 207.712 169.349 205.52 171.802 203.342C174.139 201.254 175.997 199.074 177.075 197.573C181.315 197.691 185.761 197.07 190.182 195.613L190.178 195.602ZM165.527 172.102C166.538 171.769 167.64 171.85 168.59 172.328C169.54 172.805 170.261 173.64 170.593 174.649C170.925 175.658 170.842 176.757 170.362 177.706C169.882 178.655 169.044 179.375 168.032 179.709C167.021 180.042 165.919 179.961 164.969 179.483C164.019 179.005 163.298 178.17 162.966 177.162C162.633 176.153 162.717 175.053 163.197 174.104C163.677 173.155 164.515 172.435 165.527 172.102ZM180.781 167.077C181.793 166.743 182.895 166.825 183.845 167.302C184.795 167.78 185.516 168.615 185.848 169.624C186.18 170.632 186.097 171.732 185.617 172.681C185.137 173.63 184.299 174.35 183.287 174.683C182.276 175.017 181.174 174.935 180.223 174.458C179.273 173.98 178.553 173.145 178.22 172.136C177.888 171.128 177.971 170.028 178.452 169.079C178.932 168.13 179.77 167.41 180.781 167.077ZM193.475 167.111C193.143 166.102 193.226 165.003 193.706 164.054C194.186 163.105 195.025 162.385 196.036 162.051C197.047 161.718 198.149 161.799 199.1 162.277C200.05 162.755 200.77 163.59 201.103 164.598C201.435 165.607 201.352 166.707 200.872 167.656C200.391 168.605 199.553 169.325 198.542 169.658C197.53 169.991 196.428 169.91 195.478 169.432C194.528 168.955 193.808 168.12 193.475 167.111Z" fill="white"/>
<path d="M140.837 378.984L130.763 409.896V409.85C130.579 410.31 130.318 410.693 129.981 411C129.674 411.276 129.291 411.414 128.831 411.414C128.585 411.414 128.34 411.383 128.095 411.322C127.88 411.291 127.65 411.245 127.405 411.184H127.451C125.703 410.632 125.059 409.651 125.519 408.24L136.007 376.362C136.16 375.871 136.421 375.457 136.789 375.12C137.187 374.783 137.647 374.583 138.169 374.522C138.69 374.43 139.196 374.369 139.687 374.338C140.177 374.277 140.561 374.246 140.837 374.246C141.113 374.246 141.496 374.277 141.987 374.338C142.477 374.369 142.983 374.415 143.505 374.476C143.934 374.537 144.348 374.767 144.747 375.166C145.176 375.565 145.498 375.963 145.713 376.362C147.43 381.637 149.163 386.957 150.911 392.324C152.689 397.66 154.437 402.965 156.155 408.24C156.584 409.651 155.94 410.632 154.223 411.184C153.977 411.245 153.747 411.291 153.533 411.322C153.349 411.383 153.134 411.414 152.889 411.414C152.459 411.414 152.061 411.276 151.693 411C151.355 410.693 151.11 410.31 150.957 409.85V409.896L140.837 378.984ZM144.287 399.96C144.287 400.941 143.934 401.785 143.229 402.49C142.554 403.165 141.726 403.502 140.745 403.502C139.763 403.502 138.935 403.165 138.261 402.49C137.586 401.785 137.249 400.941 137.249 399.96C137.249 398.979 137.586 398.151 138.261 397.476C138.935 396.771 139.763 396.418 140.745 396.418C141.726 396.418 142.554 396.771 143.229 397.476C143.934 398.151 144.287 398.979 144.287 399.96ZM212.668 403.64C212.668 406.124 211.84 407.979 210.184 409.206C209.387 409.789 208.559 410.249 207.7 410.586C206.872 410.893 206.059 411.046 205.262 411.046H195.234C194.437 411.046 193.609 410.893 192.75 410.586C191.922 410.249 191.109 409.789 190.312 409.206C189.515 408.593 188.901 407.841 188.472 406.952C188.043 406.032 187.828 404.928 187.828 403.64V376.454C187.828 374.982 188.733 374.246 190.542 374.246C192.382 374.246 193.302 374.982 193.302 376.454V403.272C193.302 404.069 193.532 404.79 193.992 405.434C194.452 406.078 195.249 406.4 196.384 406.4H204.112C205.247 406.4 206.044 406.078 206.504 405.434C206.964 404.79 207.194 404.069 207.194 403.272V376.454C207.194 374.982 208.099 374.246 209.908 374.246C211.748 374.246 212.668 374.982 212.668 376.454V403.64ZM260.342 395.866H256.8C256.278 395.866 255.864 395.667 255.558 395.268C255.282 394.839 255.144 394.271 255.144 393.566C255.144 392.002 255.788 391.22 257.076 391.22H262.458C263.592 391.22 264.39 390.898 264.85 390.254C265.31 389.61 265.54 388.905 265.54 388.138V382.204C265.54 381.437 265.31 380.732 264.85 380.088C264.39 379.444 263.592 379.122 262.458 379.122H252.752V409.114C252.752 410.586 251.847 411.322 250.038 411.322C248.228 411.322 247.324 410.586 247.324 409.114V377.236C247.324 376.132 247.6 375.396 248.152 375.028C248.734 374.66 249.424 374.476 250.222 374.476H263.608C264.405 374.476 265.233 374.645 266.092 374.982C266.95 375.319 267.778 375.749 268.576 376.27H268.53C269.327 376.853 269.94 377.619 270.37 378.57C270.799 379.49 271.014 380.563 271.014 381.79V388.506C271.014 390.99 270.186 392.845 268.53 394.072C268.192 394.317 267.824 394.547 267.426 394.762C267.058 394.977 266.674 395.191 266.276 395.406L273.636 407.55C273.728 407.703 273.82 407.903 273.912 408.148C274.004 408.393 274.05 408.593 274.05 408.746C274.05 409.482 273.528 410.187 272.486 410.862V410.816C271.78 411.245 271.182 411.46 270.692 411.46C269.986 411.46 269.419 411.107 268.99 410.402L269.036 410.448L260.342 395.866ZM311.578 409.068C311.578 410.54 310.658 411.276 308.818 411.276C307.008 411.276 306.104 410.54 306.104 409.068V376.454C306.104 374.982 307.008 374.246 308.818 374.246C310.658 374.246 311.578 374.982 311.578 376.454V409.068ZM363.981 389.978C364.778 389.978 365.606 390.147 366.465 390.484C367.324 390.821 368.152 391.266 368.949 391.818H368.903C369.7 392.37 370.314 393.121 370.743 394.072C371.172 395.023 371.387 396.111 371.387 397.338V403.64C371.387 406.124 370.559 407.979 368.903 409.206C368.106 409.789 367.278 410.249 366.419 410.586C365.591 410.893 364.778 411.046 363.981 411.046H353.953C353.156 411.046 352.328 410.893 351.469 410.586C350.641 410.249 349.828 409.789 349.031 409.206C347.375 407.979 346.547 406.124 346.547 403.64V400.604C346.547 399.163 347.452 398.442 349.261 398.442C351.101 398.442 352.021 399.163 352.021 400.604V403.272C352.021 404.069 352.251 404.79 352.711 405.434C353.171 406.078 353.968 406.4 355.103 406.4H362.831C363.966 406.4 364.763 406.078 365.223 405.434C365.683 404.79 365.913 404.069 365.913 403.272V397.706C365.913 396.939 365.683 396.234 365.223 395.59C364.763 394.915 363.966 394.578 362.831 394.578H353.953C352.358 394.578 350.718 393.995 349.031 392.83C347.375 391.542 346.547 389.687 346.547 387.264V381.79C346.547 380.563 346.762 379.49 347.191 378.57C347.62 377.619 348.234 376.853 349.031 376.27H348.985C349.782 375.749 350.61 375.319 351.469 374.982C352.328 374.645 353.156 374.476 353.953 374.476H363.981C364.778 374.476 365.606 374.645 366.465 374.982C367.324 375.319 368.152 375.749 368.949 376.27H368.903C369.7 376.853 370.314 377.619 370.743 378.57C371.172 379.49 371.387 380.563 371.387 381.79V384.504C371.387 385.945 370.467 386.666 368.627 386.666C366.818 386.666 365.913 385.945 365.913 384.504V382.204C365.913 381.437 365.683 380.732 365.223 380.088C364.763 379.444 363.966 379.122 362.831 379.122H355.103C353.968 379.122 353.171 379.444 352.711 380.088C352.251 380.732 352.021 381.437 352.021 382.204V386.896C352.021 387.693 352.251 388.414 352.711 389.058C353.171 389.671 353.968 389.978 355.103 389.978H363.981Z" fill="white"/>
</svg>
